<mxfile host="app.diagrams.net" modified="2023-03-24T15:52:09.741Z" agent="Mozilla/5.0 (Windows NT 10.0; Win64; x64) AppleWebKit/537.36 (KHTML, like Gecko) Chrome/111.0.0.0 Safari/537.36" etag="6GIp4lcTbNm9RVAaj9TW" version="21.1.0" type="google">
  <diagram id="PlPm3DDEpKnXkEPoAFoL" name="PÃ¡gina-1">
    <mxGraphModel grid="1" page="1" gridSize="10" guides="1" tooltips="1" connect="1" arrows="1" fold="1" pageScale="1" pageWidth="1169" pageHeight="827" math="0" shadow="0">
      <root>
        <mxCell id="0" />
        <mxCell id="1" parent="0" />
        <mxCell id="C1baLwybS-N-n2R99N6j-1" value="&lt;b&gt;&lt;font color=&quot;#000099&quot; style=&quot;font-size: 20px;&quot;&gt;Cliente&lt;/font&gt;&lt;/b&gt;" style="rounded=0;whiteSpace=wrap;html=1;labelBackgroundColor=default;labelBorderColor=#3333FF;fillColor=#66FF66;" vertex="1" parent="1">
          <mxGeometry x="320" y="200" width="120" height="60" as="geometry" />
        </mxCell>
        <mxCell id="C1baLwybS-N-n2R99N6j-2" value="&lt;b&gt;&lt;font color=&quot;#000099&quot; style=&quot;font-size: 20px; background-color: rgb(255, 255, 255);&quot;&gt;Ciudad&lt;/font&gt;&lt;/b&gt;" style="rounded=0;whiteSpace=wrap;html=1;labelBorderColor=#3333FF;fillColor=#66FF66;" vertex="1" parent="1">
          <mxGeometry x="170" y="665" width="120" height="60" as="geometry" />
        </mxCell>
        <mxCell id="C1baLwybS-N-n2R99N6j-3" value="&lt;b&gt;&lt;font color=&quot;#000099&quot; style=&quot;font-size: 20px; background-color: rgb(255, 255, 255);&quot;&gt;Region&lt;/font&gt;&lt;/b&gt;" style="rounded=0;whiteSpace=wrap;html=1;labelBorderColor=#3333FF;fillColor=#66FF66;" vertex="1" parent="1">
          <mxGeometry x="659" y="660" width="120" height="60" as="geometry" />
        </mxCell>
        <mxCell id="C1baLwybS-N-n2R99N6j-5" value="&lt;b&gt;&lt;font style=&quot;font-size: 14px; background-color: rgb(230, 230, 230);&quot;&gt;id_cliente&lt;/font&gt;&lt;/b&gt;" style="ellipse;whiteSpace=wrap;html=1;labelBackgroundColor=#FFFFFF;fontSize=15;fontColor=#000000;fillColor=#FFFFFF;gradientColor=default;" vertex="1" parent="1">
          <mxGeometry x="330" y="100" width="100" height="30" as="geometry" />
        </mxCell>
        <mxCell id="C1baLwybS-N-n2R99N6j-9" value="&lt;span style=&quot;font-size: 14px; background-color: rgb(230, 230, 230);&quot;&gt;&lt;b&gt;id_Segmento&lt;/b&gt;&lt;/span&gt;" style="ellipse;whiteSpace=wrap;html=1;labelBackgroundColor=#FFFFFF;fontSize=15;fontColor=#000000;fillColor=#FFFFFF;gradientColor=default;" vertex="1" parent="1">
          <mxGeometry x="330" y="130" width="100" height="30" as="geometry" />
        </mxCell>
        <mxCell id="C1baLwybS-N-n2R99N6j-28" value="" style="edgeStyle=orthogonalEdgeStyle;rounded=0;orthogonalLoop=1;jettySize=auto;html=1;fontSize=12;fontColor=#003300;" edge="1" parent="1" source="C1baLwybS-N-n2R99N6j-13" target="C1baLwybS-N-n2R99N6j-17">
          <mxGeometry relative="1" as="geometry" />
        </mxCell>
        <mxCell id="C1baLwybS-N-n2R99N6j-13" value="&lt;b&gt;Realiza&lt;/b&gt;" style="rhombus;whiteSpace=wrap;html=1;labelBackgroundColor=#E6E6E6;fontSize=14;fontColor=#000000;fillColor=#CC0000;gradientColor=default;" vertex="1" parent="1">
          <mxGeometry x="230" y="330" width="90" height="80" as="geometry" />
        </mxCell>
        <mxCell id="C1baLwybS-N-n2R99N6j-30" value="" style="edgeStyle=orthogonalEdgeStyle;rounded=0;orthogonalLoop=1;jettySize=auto;html=1;fontSize=12;fontColor=#003300;" edge="1" parent="1" source="C1baLwybS-N-n2R99N6j-14" target="C1baLwybS-N-n2R99N6j-15">
          <mxGeometry relative="1" as="geometry" />
        </mxCell>
        <mxCell id="C1baLwybS-N-n2R99N6j-14" value="&lt;b&gt;Realiza&lt;/b&gt;" style="rhombus;whiteSpace=wrap;html=1;labelBackgroundColor=#E6E6E6;fontSize=14;fontColor=#000000;fillColor=#CC0000;gradientColor=default;" vertex="1" parent="1">
          <mxGeometry x="430" y="320" width="90" height="80" as="geometry" />
        </mxCell>
        <mxCell id="C1baLwybS-N-n2R99N6j-32" value="" style="edgeStyle=orthogonalEdgeStyle;rounded=0;orthogonalLoop=1;jettySize=auto;html=1;fontSize=12;fontColor=#003300;" edge="1" parent="1" source="C1baLwybS-N-n2R99N6j-15" target="C1baLwybS-N-n2R99N6j-19">
          <mxGeometry relative="1" as="geometry" />
        </mxCell>
        <mxCell id="C1baLwybS-N-n2R99N6j-15" value="&lt;b&gt;&lt;font color=&quot;#000099&quot; style=&quot;font-size: 20px; background-color: rgb(255, 255, 255);&quot;&gt;Ordenes&lt;/font&gt;&lt;/b&gt;" style="rounded=0;whiteSpace=wrap;html=1;labelBorderColor=#3333FF;fillColor=#66FF66;" vertex="1" parent="1">
          <mxGeometry x="580" y="330" width="120" height="60" as="geometry" />
        </mxCell>
        <mxCell id="C1baLwybS-N-n2R99N6j-16" value="&lt;b&gt;&lt;font color=&quot;#000099&quot; style=&quot;font-size: 20px; background-color: rgb(255, 255, 255);&quot;&gt;Productos&lt;/font&gt;&lt;/b&gt;" style="rounded=0;whiteSpace=wrap;html=1;labelBorderColor=#3333FF;fillColor=#66FF66;" vertex="1" parent="1">
          <mxGeometry x="1150" y="325" width="120" height="60" as="geometry" />
        </mxCell>
        <mxCell id="C1baLwybS-N-n2R99N6j-17" value="&lt;b&gt;&lt;font color=&quot;#000099&quot; style=&quot;font-size: 20px; background-color: rgb(255, 255, 255);&quot;&gt;Retornos&lt;/font&gt;&lt;/b&gt;" style="rounded=0;whiteSpace=wrap;html=1;labelBorderColor=#3333FF;fillColor=#66FF66;" vertex="1" parent="1">
          <mxGeometry x="215" y="450" width="120" height="60" as="geometry" />
        </mxCell>
        <mxCell id="C1baLwybS-N-n2R99N6j-18" value="&lt;b&gt;Tiene&lt;/b&gt;" style="rhombus;whiteSpace=wrap;html=1;labelBackgroundColor=#E6E6E6;fontSize=14;fontColor=#000000;fillColor=#CC0000;gradientColor=default;" vertex="1" parent="1">
          <mxGeometry x="519" y="480" width="90" height="80" as="geometry" />
        </mxCell>
        <mxCell id="C1baLwybS-N-n2R99N6j-19" value="&lt;b&gt;Contiene&lt;/b&gt;" style="rhombus;whiteSpace=wrap;html=1;labelBackgroundColor=#E6E6E6;fontSize=14;fontColor=#000000;fillColor=#CC0000;gradientColor=default;" vertex="1" parent="1">
          <mxGeometry x="890" y="320" width="90" height="80" as="geometry" />
        </mxCell>
        <mxCell id="C1baLwybS-N-n2R99N6j-20" value="&lt;b&gt;Tiene&lt;/b&gt;" style="rhombus;whiteSpace=wrap;html=1;labelBackgroundColor=#E6E6E6;fontSize=14;fontColor=#000000;fillColor=#CC0000;gradientColor=default;" vertex="1" parent="1">
          <mxGeometry x="680" y="480" width="90" height="80" as="geometry" />
        </mxCell>
        <mxCell id="C1baLwybS-N-n2R99N6j-21" value="&lt;b&gt;&lt;font style=&quot;font-size: 14px; background-color: rgb(230, 230, 230);&quot;&gt;Nombre Cl&lt;/font&gt;&lt;/b&gt;" style="ellipse;whiteSpace=wrap;html=1;labelBackgroundColor=#FFFFFF;fontSize=15;fontColor=#000000;fillColor=#FFFFFF;gradientColor=default;" vertex="1" parent="1">
          <mxGeometry x="330" y="160" width="100" height="30" as="geometry" />
        </mxCell>
        <mxCell id="C1baLwybS-N-n2R99N6j-23" value="&lt;b&gt;&lt;font color=&quot;#3333ff&quot; style=&quot;font-size: 12px;&quot;&gt;PK&lt;/font&gt;&lt;/b&gt;" style="text;html=1;align=center;verticalAlign=middle;resizable=0;points=[];autosize=1;strokeColor=none;fillColor=none;fontSize=14;fontColor=#000000;" vertex="1" parent="1">
          <mxGeometry x="430" y="100" width="40" height="30" as="geometry" />
        </mxCell>
        <mxCell id="C1baLwybS-N-n2R99N6j-24" value="&lt;font color=&quot;#003300&quot;&gt;1&lt;/font&gt;" style="text;html=1;strokeColor=none;fillColor=none;align=center;verticalAlign=middle;whiteSpace=wrap;rounded=0;labelBackgroundColor=#E6E6E6;fontSize=12;fontColor=#3333FF;" vertex="1" parent="1">
          <mxGeometry x="450" y="240" width="30" height="30" as="geometry" />
        </mxCell>
        <mxCell id="C1baLwybS-N-n2R99N6j-26" value="" style="endArrow=classic;html=1;rounded=0;fontSize=12;fontColor=#003300;entryX=0.5;entryY=0;entryDx=0;entryDy=0;" edge="1" parent="1" target="C1baLwybS-N-n2R99N6j-13">
          <mxGeometry width="50" height="50" relative="1" as="geometry">
            <mxPoint x="320" y="260" as="sourcePoint" />
            <mxPoint x="340" y="310" as="targetPoint" />
          </mxGeometry>
        </mxCell>
        <mxCell id="C1baLwybS-N-n2R99N6j-29" value="" style="endArrow=classic;html=1;rounded=0;fontSize=12;fontColor=#003300;startArrow=none;" edge="1" parent="1">
          <mxGeometry width="50" height="50" relative="1" as="geometry">
            <mxPoint x="580" y="360" as="sourcePoint" />
            <mxPoint x="580" y="360" as="targetPoint" />
          </mxGeometry>
        </mxCell>
        <mxCell id="C1baLwybS-N-n2R99N6j-33" value="" style="endArrow=classic;html=1;rounded=0;fontSize=12;fontColor=#003300;" edge="1" parent="1">
          <mxGeometry width="50" height="50" relative="1" as="geometry">
            <mxPoint x="980" y="360" as="sourcePoint" />
            <mxPoint x="1140" y="360" as="targetPoint" />
          </mxGeometry>
        </mxCell>
        <mxCell id="C1baLwybS-N-n2R99N6j-34" value="" style="endArrow=classic;html=1;rounded=0;fontSize=12;fontColor=#003300;entryX=0.5;entryY=0;entryDx=0;entryDy=0;" edge="1" parent="1" target="C1baLwybS-N-n2R99N6j-18">
          <mxGeometry width="50" height="50" relative="1" as="geometry">
            <mxPoint x="590" y="390" as="sourcePoint" />
            <mxPoint x="600" y="480" as="targetPoint" />
          </mxGeometry>
        </mxCell>
        <mxCell id="C1baLwybS-N-n2R99N6j-35" value="" style="endArrow=classic;html=1;rounded=0;fontSize=12;fontColor=#003300;" edge="1" parent="1">
          <mxGeometry width="50" height="50" relative="1" as="geometry">
            <mxPoint x="680" y="390" as="sourcePoint" />
            <mxPoint x="720" y="480" as="targetPoint" />
          </mxGeometry>
        </mxCell>
        <mxCell id="C1baLwybS-N-n2R99N6j-36" value="" style="edgeStyle=orthogonalEdgeStyle;rounded=0;orthogonalLoop=1;jettySize=auto;html=1;fontSize=12;fontColor=#003300;" edge="1" parent="1">
          <mxGeometry relative="1" as="geometry">
            <mxPoint x="563.5" y="560" as="sourcePoint" />
            <mxPoint x="564" y="650" as="targetPoint" />
            <Array as="points">
              <mxPoint x="564" y="580" />
              <mxPoint x="564" y="580" />
            </Array>
          </mxGeometry>
        </mxCell>
        <mxCell id="C1baLwybS-N-n2R99N6j-37" value="" style="edgeStyle=orthogonalEdgeStyle;rounded=0;orthogonalLoop=1;jettySize=auto;html=1;fontSize=12;fontColor=#003300;" edge="1" parent="1">
          <mxGeometry relative="1" as="geometry">
            <mxPoint x="724.5" y="560" as="sourcePoint" />
            <mxPoint x="725" y="650" as="targetPoint" />
            <Array as="points">
              <mxPoint x="725" y="590" />
              <mxPoint x="725" y="590" />
            </Array>
          </mxGeometry>
        </mxCell>
        <mxCell id="C1baLwybS-N-n2R99N6j-39" value="&lt;b&gt;&lt;font style=&quot;font-size: 14px; background-color: rgb(230, 230, 230);&quot;&gt;Dia_orden&lt;/font&gt;&lt;/b&gt;" style="ellipse;whiteSpace=wrap;html=1;labelBackgroundColor=#FFFFFF;fontSize=15;fontColor=#000000;fillColor=#FFFFFF;gradientColor=default;" vertex="1" parent="1">
          <mxGeometry x="589" y="230" width="100" height="30" as="geometry" />
        </mxCell>
        <mxCell id="C1baLwybS-N-n2R99N6j-40" value="&lt;b&gt;&lt;font style=&quot;font-size: 14px; background-color: rgb(230, 230, 230);&quot;&gt;id Ship mode&lt;/font&gt;&lt;/b&gt;" style="ellipse;whiteSpace=wrap;html=1;labelBackgroundColor=#FFFFFF;fontSize=15;fontColor=#000000;fillColor=#FFFFFF;gradientColor=default;" vertex="1" parent="1">
          <mxGeometry x="590" y="260" width="100" height="30" as="geometry" />
        </mxCell>
        <mxCell id="C1baLwybS-N-n2R99N6j-41" value="&lt;b&gt;&lt;font style=&quot;font-size: 14px; background-color: rgb(230, 230, 230);&quot;&gt;Cantidad&lt;/font&gt;&lt;/b&gt;" style="ellipse;whiteSpace=wrap;html=1;labelBackgroundColor=#FFFFFF;fontSize=15;fontColor=#000000;fillColor=#FFFFFF;gradientColor=default;" vertex="1" parent="1">
          <mxGeometry x="960" y="140" width="100" height="30" as="geometry" />
        </mxCell>
        <mxCell id="C1baLwybS-N-n2R99N6j-43" value="&lt;span style=&quot;font-size: 14px; background-color: rgb(230, 230, 230);&quot;&gt;&lt;b&gt;id_cliente&lt;/b&gt;&lt;/span&gt;" style="ellipse;whiteSpace=wrap;html=1;labelBackgroundColor=#FFFFFF;fontSize=15;fontColor=#000000;fillColor=#FFFFFF;gradientColor=default;" vertex="1" parent="1">
          <mxGeometry x="590" y="200" width="100" height="30" as="geometry" />
        </mxCell>
        <mxCell id="C1baLwybS-N-n2R99N6j-44" value="&lt;b&gt;&lt;font style=&quot;font-size: 14px; background-color: rgb(230, 230, 230);&quot;&gt;Id CodPost&lt;/font&gt;&lt;/b&gt;" style="ellipse;whiteSpace=wrap;html=1;labelBackgroundColor=#FFFFFF;fontSize=15;fontColor=#000000;fillColor=#FFFFFF;gradientColor=default;" vertex="1" parent="1">
          <mxGeometry x="590" y="170" width="100" height="30" as="geometry" />
        </mxCell>
        <mxCell id="C1baLwybS-N-n2R99N6j-46" value="&lt;b&gt;&lt;font style=&quot;font-size: 14px; background-color: rgb(230, 230, 230);&quot;&gt;Id Region&lt;/font&gt;&lt;/b&gt;" style="ellipse;whiteSpace=wrap;html=1;labelBackgroundColor=#FFFFFF;fontSize=15;fontColor=#000000;fillColor=#FFFFFF;gradientColor=default;" vertex="1" parent="1">
          <mxGeometry x="590" y="140" width="100" height="30" as="geometry" />
        </mxCell>
        <mxCell id="C1baLwybS-N-n2R99N6j-53" value="&lt;b&gt;&lt;font color=&quot;#cc0000&quot; style=&quot;font-size: 12px;&quot;&gt;FK&lt;/font&gt;&lt;/b&gt;" style="text;html=1;align=center;verticalAlign=middle;resizable=0;points=[];autosize=1;strokeColor=none;fillColor=none;fontSize=14;fontColor=#000000;" vertex="1" parent="1">
          <mxGeometry x="690" y="200" width="40" height="30" as="geometry" />
        </mxCell>
        <mxCell id="C1baLwybS-N-n2R99N6j-54" value="&lt;b&gt;&lt;font color=&quot;#cc0000&quot; style=&quot;font-size: 12px;&quot;&gt;FK&lt;/font&gt;&lt;/b&gt;" style="text;html=1;align=center;verticalAlign=middle;resizable=0;points=[];autosize=1;strokeColor=none;fillColor=none;fontSize=14;fontColor=#000000;" vertex="1" parent="1">
          <mxGeometry x="690" y="140" width="40" height="30" as="geometry" />
        </mxCell>
        <mxCell id="C1baLwybS-N-n2R99N6j-55" value="&lt;b&gt;&lt;font color=&quot;#cc0000&quot; style=&quot;font-size: 12px;&quot;&gt;FK&lt;/font&gt;&lt;/b&gt;" style="text;html=1;align=center;verticalAlign=middle;resizable=0;points=[];autosize=1;strokeColor=none;fillColor=none;fontSize=14;fontColor=#000000;" vertex="1" parent="1">
          <mxGeometry x="690" y="170" width="40" height="30" as="geometry" />
        </mxCell>
        <mxCell id="C1baLwybS-N-n2R99N6j-56" value="&lt;font color=&quot;#003300&quot;&gt;1&lt;/font&gt;" style="text;html=1;strokeColor=none;fillColor=none;align=center;verticalAlign=middle;whiteSpace=wrap;rounded=0;labelBackgroundColor=#E6E6E6;fontSize=12;fontColor=#3333FF;" vertex="1" parent="1">
          <mxGeometry x="290" y="240" width="30" height="30" as="geometry" />
        </mxCell>
        <mxCell id="C1baLwybS-N-n2R99N6j-57" value="" style="endArrow=classic;html=1;rounded=0;fontSize=12;fontColor=#003300;entryX=0.5;entryY=0;entryDx=0;entryDy=0;" edge="1" parent="1" target="C1baLwybS-N-n2R99N6j-14">
          <mxGeometry width="50" height="50" relative="1" as="geometry">
            <mxPoint x="440" y="260" as="sourcePoint" />
            <mxPoint x="425" y="320" as="targetPoint" />
          </mxGeometry>
        </mxCell>
        <mxCell id="C1baLwybS-N-n2R99N6j-59" value="&lt;font color=&quot;#003300&quot;&gt;1:N&lt;/font&gt;" style="text;html=1;strokeColor=none;fillColor=none;align=center;verticalAlign=middle;whiteSpace=wrap;rounded=0;labelBackgroundColor=#E6E6E6;fontSize=12;fontColor=#3333FF;" vertex="1" parent="1">
          <mxGeometry x="399" y="345" width="30" height="30" as="geometry" />
        </mxCell>
        <mxCell id="C1baLwybS-N-n2R99N6j-64" value="&lt;font color=&quot;#003300&quot;&gt;*&lt;/font&gt;" style="text;html=1;strokeColor=none;fillColor=none;align=center;verticalAlign=middle;whiteSpace=wrap;rounded=0;labelBackgroundColor=#E6E6E6;fontSize=12;fontColor=#3333FF;" vertex="1" parent="1">
          <mxGeometry x="549" y="330" width="30" height="30" as="geometry" />
        </mxCell>
        <mxCell id="C1baLwybS-N-n2R99N6j-65" value="&lt;font color=&quot;#003300&quot;&gt;*&lt;/font&gt;" style="text;html=1;strokeColor=none;fillColor=none;align=center;verticalAlign=middle;whiteSpace=wrap;rounded=0;labelBackgroundColor=#E6E6E6;fontSize=12;fontColor=#3333FF;" vertex="1" parent="1">
          <mxGeometry x="240" y="420" width="30" height="30" as="geometry" />
        </mxCell>
        <mxCell id="C1baLwybS-N-n2R99N6j-66" value="&lt;font color=&quot;#003300&quot;&gt;1:N&lt;/font&gt;" style="text;html=1;strokeColor=none;fillColor=none;align=center;verticalAlign=middle;whiteSpace=wrap;rounded=0;labelBackgroundColor=#E6E6E6;fontSize=12;fontColor=#3333FF;" vertex="1" parent="1">
          <mxGeometry x="200" y="355" width="30" height="30" as="geometry" />
        </mxCell>
        <mxCell id="C1baLwybS-N-n2R99N6j-67" value="&lt;b&gt;&lt;font style=&quot;font-size: 14px; background-color: rgb(230, 230, 230);&quot;&gt;id_retorno&lt;/font&gt;&lt;/b&gt;" style="ellipse;whiteSpace=wrap;html=1;labelBackgroundColor=#FFFFFF;fontSize=15;fontColor=#000000;fillColor=#FFFFFF;gradientColor=default;" vertex="1" parent="1">
          <mxGeometry x="225" y="520" width="100" height="30" as="geometry" />
        </mxCell>
        <mxCell id="C1baLwybS-N-n2R99N6j-68" value="&lt;b&gt;&lt;font color=&quot;#3333ff&quot; style=&quot;font-size: 12px;&quot;&gt;PK&lt;/font&gt;&lt;/b&gt;" style="text;html=1;align=center;verticalAlign=middle;resizable=0;points=[];autosize=1;strokeColor=none;fillColor=none;fontSize=14;fontColor=#000000;" vertex="1" parent="1">
          <mxGeometry x="325" y="520" width="40" height="30" as="geometry" />
        </mxCell>
        <mxCell id="C1baLwybS-N-n2R99N6j-69" value="&lt;b&gt;&lt;font style=&quot;font-size: 14px; background-color: rgb(230, 230, 230);&quot;&gt;id_orden&lt;/font&gt;&lt;/b&gt;" style="ellipse;whiteSpace=wrap;html=1;labelBackgroundColor=#FFFFFF;fontSize=15;fontColor=#000000;fillColor=#FFFFFF;gradientColor=default;" vertex="1" parent="1">
          <mxGeometry x="225" y="550" width="100" height="30" as="geometry" />
        </mxCell>
        <mxCell id="C1baLwybS-N-n2R99N6j-71" value="&lt;b&gt;&lt;font style=&quot;font-size: 14px; background-color: rgb(230, 230, 230);&quot;&gt;Id Causa&lt;/font&gt;&lt;/b&gt;" style="ellipse;whiteSpace=wrap;html=1;labelBackgroundColor=#FFFFFF;fontSize=15;fontColor=#000000;fillColor=#FFFFFF;gradientColor=default;" vertex="1" parent="1">
          <mxGeometry x="225" y="580" width="100" height="30" as="geometry" />
        </mxCell>
        <mxCell id="C1baLwybS-N-n2R99N6j-72" value="&lt;b&gt;&lt;font color=&quot;#cc0000&quot; style=&quot;font-size: 12px;&quot;&gt;FK&lt;/font&gt;&lt;/b&gt;" style="text;html=1;align=center;verticalAlign=middle;resizable=0;points=[];autosize=1;strokeColor=none;fillColor=none;fontSize=14;fontColor=#000000;" vertex="1" parent="1">
          <mxGeometry x="320" y="550" width="40" height="30" as="geometry" />
        </mxCell>
        <mxCell id="C1baLwybS-N-n2R99N6j-73" value="&lt;b&gt;&lt;font style=&quot;font-size: 14px; background-color: rgb(230, 230, 230);&quot;&gt;Id CodPost&lt;/font&gt;&lt;/b&gt;" style="ellipse;whiteSpace=wrap;html=1;labelBackgroundColor=#FFFFFF;fontSize=15;fontColor=#000000;fillColor=#FFFFFF;gradientColor=default;" vertex="1" parent="1">
          <mxGeometry x="530" y="725" width="100" height="30" as="geometry" />
        </mxCell>
        <mxCell id="C1baLwybS-N-n2R99N6j-77" value="&lt;b&gt;&lt;font color=&quot;#3333ff&quot; style=&quot;font-size: 12px;&quot;&gt;PK&lt;/font&gt;&lt;/b&gt;" style="text;html=1;align=center;verticalAlign=middle;resizable=0;points=[];autosize=1;strokeColor=none;fillColor=none;fontSize=14;fontColor=#000000;" vertex="1" parent="1">
          <mxGeometry x="490" y="730" width="40" height="30" as="geometry" />
        </mxCell>
        <mxCell id="C1baLwybS-N-n2R99N6j-78" value="&lt;span style=&quot;font-size: 14px; background-color: rgb(230, 230, 230);&quot;&gt;&lt;b&gt;Id Region&lt;/b&gt;&lt;/span&gt;" style="ellipse;whiteSpace=wrap;html=1;labelBackgroundColor=#FFFFFF;fontSize=15;fontColor=#000000;fillColor=#FFFFFF;gradientColor=default;" vertex="1" parent="1">
          <mxGeometry x="675" y="720" width="100" height="30" as="geometry" />
        </mxCell>
        <mxCell id="C1baLwybS-N-n2R99N6j-79" value="&lt;b&gt;&lt;font style=&quot;font-size: 14px; background-color: rgb(230, 230, 230);&quot;&gt;Nombre reg&lt;/font&gt;&lt;/b&gt;" style="ellipse;whiteSpace=wrap;html=1;labelBackgroundColor=#FFFFFF;fontSize=15;fontColor=#000000;fillColor=#FFFFFF;gradientColor=default;" vertex="1" parent="1">
          <mxGeometry x="675" y="750" width="100" height="30" as="geometry" />
        </mxCell>
        <mxCell id="C1baLwybS-N-n2R99N6j-81" value="&lt;b&gt;&lt;font style=&quot;font-size: 14px; background-color: rgb(230, 230, 230);&quot;&gt;id_producto&lt;/font&gt;&lt;/b&gt;" style="ellipse;whiteSpace=wrap;html=1;labelBackgroundColor=#FFFFFF;fontSize=15;fontColor=#000000;fillColor=#FFFFFF;gradientColor=default;" vertex="1" parent="1">
          <mxGeometry x="1150" y="390" width="100" height="30" as="geometry" />
        </mxCell>
        <mxCell id="C1baLwybS-N-n2R99N6j-83" value="&lt;span&gt;&lt;font style=&quot;font-size: 14px; background-color: rgb(230, 230, 230);&quot;&gt;Id Subcateg&lt;/font&gt;&lt;/span&gt;" style="ellipse;whiteSpace=wrap;html=1;labelBackgroundColor=#FFFFFF;fontSize=15;fontColor=#000000;fillColor=#FFFFFF;gradientColor=default;fontStyle=1" vertex="1" parent="1">
          <mxGeometry x="1150" y="420" width="100" height="30" as="geometry" />
        </mxCell>
        <mxCell id="C1baLwybS-N-n2R99N6j-84" value="&lt;b&gt;&lt;font style=&quot;font-size: 14px; background-color: rgb(230, 230, 230);&quot;&gt;Nombre Prod&lt;/font&gt;&lt;/b&gt;" style="ellipse;whiteSpace=wrap;html=1;labelBackgroundColor=#FFFFFF;fontSize=15;fontColor=#000000;fillColor=#FFFFFF;gradientColor=default;" vertex="1" parent="1">
          <mxGeometry x="1150" y="450" width="100" height="30" as="geometry" />
        </mxCell>
        <mxCell id="C1baLwybS-N-n2R99N6j-85" value="&lt;b&gt;&lt;font color=&quot;#3333ff&quot; style=&quot;font-size: 12px;&quot;&gt;PK&lt;/font&gt;&lt;/b&gt;" style="text;html=1;align=center;verticalAlign=middle;resizable=0;points=[];autosize=1;strokeColor=none;fillColor=none;fontSize=14;fontColor=#000000;" vertex="1" parent="1">
          <mxGeometry x="1241" y="390" width="40" height="30" as="geometry" />
        </mxCell>
        <mxCell id="C1baLwybS-N-n2R99N6j-89" value="&lt;font color=&quot;#003300&quot;&gt;1&lt;/font&gt;" style="text;html=1;strokeColor=none;fillColor=none;align=center;verticalAlign=middle;whiteSpace=wrap;rounded=0;labelBackgroundColor=#E6E6E6;fontSize=12;fontColor=#3333FF;" vertex="1" parent="1">
          <mxGeometry x="594" y="400" width="30" height="30" as="geometry" />
        </mxCell>
        <mxCell id="C1baLwybS-N-n2R99N6j-91" value="&lt;font color=&quot;#003300&quot;&gt;1&lt;/font&gt;" style="text;html=1;strokeColor=none;fillColor=none;align=center;verticalAlign=middle;whiteSpace=wrap;rounded=0;labelBackgroundColor=#E6E6E6;fontSize=12;fontColor=#3333FF;" vertex="1" parent="1">
          <mxGeometry x="700" y="400" width="30" height="30" as="geometry" />
        </mxCell>
        <mxCell id="C1baLwybS-N-n2R99N6j-92" value="&lt;font color=&quot;#003300&quot;&gt;1&lt;/font&gt;" style="text;html=1;strokeColor=none;fillColor=none;align=center;verticalAlign=middle;whiteSpace=wrap;rounded=0;labelBackgroundColor=#E6E6E6;fontSize=12;fontColor=#3333FF;" vertex="1" parent="1">
          <mxGeometry x="574" y="630" width="30" height="30" as="geometry" />
        </mxCell>
        <mxCell id="C1baLwybS-N-n2R99N6j-93" value="&lt;font color=&quot;#003300&quot;&gt;1&lt;/font&gt;" style="text;html=1;strokeColor=none;fillColor=none;align=center;verticalAlign=middle;whiteSpace=wrap;rounded=0;labelBackgroundColor=#E6E6E6;fontSize=12;fontColor=#3333FF;" vertex="1" parent="1">
          <mxGeometry x="739" y="625" width="30" height="30" as="geometry" />
        </mxCell>
        <mxCell id="C1baLwybS-N-n2R99N6j-95" value="&lt;font color=&quot;#003300&quot;&gt;1:1&lt;/font&gt;" style="text;html=1;strokeColor=none;fillColor=none;align=center;verticalAlign=middle;whiteSpace=wrap;rounded=0;labelBackgroundColor=#E6E6E6;fontSize=12;fontColor=#3333FF;" vertex="1" parent="1">
          <mxGeometry x="770" y="510" width="30" height="30" as="geometry" />
        </mxCell>
        <mxCell id="C1baLwybS-N-n2R99N6j-96" value="&lt;b&gt;&lt;font color=&quot;#3333ff&quot; style=&quot;font-size: 12px;&quot;&gt;PK&lt;/font&gt;&lt;/b&gt;" style="text;html=1;align=center;verticalAlign=middle;resizable=0;points=[];autosize=1;strokeColor=none;fillColor=none;fontSize=14;fontColor=#000000;" vertex="1" parent="1">
          <mxGeometry x="779" y="720" width="40" height="30" as="geometry" />
        </mxCell>
        <mxCell id="C1baLwybS-N-n2R99N6j-105" value="&lt;font color=&quot;#003300&quot;&gt;*&lt;/font&gt;" style="text;html=1;strokeColor=none;fillColor=none;align=center;verticalAlign=middle;whiteSpace=wrap;rounded=0;labelBackgroundColor=#E6E6E6;fontSize=12;fontColor=#3333FF;" vertex="1" parent="1">
          <mxGeometry x="1120" y="325" width="30" height="30" as="geometry" />
        </mxCell>
        <mxCell id="C1baLwybS-N-n2R99N6j-106" value="" style="endArrow=none;html=1;rounded=0;fontSize=12;fontColor=#003300;" edge="1" parent="1">
          <mxGeometry width="50" height="50" relative="1" as="geometry">
            <mxPoint x="700" y="359.5" as="sourcePoint" />
            <mxPoint x="700" y="359.5" as="targetPoint" />
          </mxGeometry>
        </mxCell>
        <mxCell id="2aEqqAUmdZuA0e0Xjtmh-7" value="&lt;b&gt;&lt;font style=&quot;font-size: 14px; background-color: rgb(230, 230, 230);&quot;&gt;id_orden&lt;/font&gt;&lt;/b&gt;" style="ellipse;whiteSpace=wrap;html=1;labelBackgroundColor=#FFFFFF;fontSize=15;fontColor=#000000;fillColor=#FFFFFF;gradientColor=default;" vertex="1" parent="1">
          <mxGeometry x="589" y="290" width="100" height="30" as="geometry" />
        </mxCell>
        <mxCell id="2aEqqAUmdZuA0e0Xjtmh-10" value="&lt;b&gt;Generan&lt;/b&gt;" style="rhombus;whiteSpace=wrap;html=1;labelBackgroundColor=#E6E6E6;fontSize=14;fontColor=#000000;fillColor=#CC0000;gradientColor=default;" vertex="1" parent="1">
          <mxGeometry x="399" y="425" width="90" height="80" as="geometry" />
        </mxCell>
        <mxCell id="2aEqqAUmdZuA0e0Xjtmh-12" value="&lt;b&gt;&lt;font color=&quot;#3333ff&quot; style=&quot;font-size: 12px;&quot;&gt;PK&lt;/font&gt;&lt;/b&gt;" style="text;html=1;align=center;verticalAlign=middle;resizable=0;points=[];autosize=1;strokeColor=none;fillColor=none;fontSize=14;fontColor=#000000;" vertex="1" parent="1">
          <mxGeometry x="680" y="290" width="40" height="30" as="geometry" />
        </mxCell>
        <mxCell id="2aEqqAUmdZuA0e0Xjtmh-15" value="" style="endArrow=classic;html=1;rounded=0;" edge="1" parent="1" target="2aEqqAUmdZuA0e0Xjtmh-10">
          <mxGeometry width="50" height="50" relative="1" as="geometry">
            <mxPoint x="579" y="370" as="sourcePoint" />
            <mxPoint x="529" y="420" as="targetPoint" />
          </mxGeometry>
        </mxCell>
        <mxCell id="2aEqqAUmdZuA0e0Xjtmh-16" value="" style="endArrow=classic;html=1;rounded=0;entryX=1;entryY=0.5;entryDx=0;entryDy=0;" edge="1" parent="1" target="C1baLwybS-N-n2R99N6j-17">
          <mxGeometry width="50" height="50" relative="1" as="geometry">
            <mxPoint x="395" y="467.67" as="sourcePoint" />
            <mxPoint x="334.9962790697674" y="509.9955813953488" as="targetPoint" />
          </mxGeometry>
        </mxCell>
        <mxCell id="2aEqqAUmdZuA0e0Xjtmh-18" value="&lt;font color=&quot;#003300&quot;&gt;1&lt;/font&gt;" style="text;html=1;strokeColor=none;fillColor=none;align=center;verticalAlign=middle;whiteSpace=wrap;rounded=0;labelBackgroundColor=#E6E6E6;fontSize=12;fontColor=#3333FF;" vertex="1" parent="1">
          <mxGeometry x="335" y="440" width="30" height="30" as="geometry" />
        </mxCell>
        <mxCell id="2aEqqAUmdZuA0e0Xjtmh-22" value="&lt;font color=&quot;#003300&quot;&gt;1&lt;/font&gt;" style="text;html=1;strokeColor=none;fillColor=none;align=center;verticalAlign=middle;whiteSpace=wrap;rounded=0;labelBackgroundColor=#E6E6E6;fontSize=12;fontColor=#3333FF;" vertex="1" parent="1">
          <mxGeometry x="549" y="385" width="30" height="30" as="geometry" />
        </mxCell>
        <mxCell id="2aEqqAUmdZuA0e0Xjtmh-27" value="&lt;font color=&quot;#003300&quot;&gt;1:1&lt;/font&gt;" style="text;html=1;strokeColor=none;fillColor=none;align=center;verticalAlign=middle;whiteSpace=wrap;rounded=0;labelBackgroundColor=#E6E6E6;fontSize=12;fontColor=#3333FF;" vertex="1" parent="1">
          <mxGeometry x="605" y="505" width="30" height="30" as="geometry" />
        </mxCell>
        <mxCell id="2aEqqAUmdZuA0e0Xjtmh-29" value="&lt;font color=&quot;#003300&quot;&gt;1:1&lt;/font&gt;" style="text;html=1;strokeColor=none;fillColor=none;align=center;verticalAlign=middle;whiteSpace=wrap;rounded=0;labelBackgroundColor=#E6E6E6;fontSize=12;fontColor=#3333FF;" vertex="1" parent="1">
          <mxGeometry x="420" y="510" width="30" height="30" as="geometry" />
        </mxCell>
        <mxCell id="8zJvEbX7JQ_z378_JHZw-1" value="&lt;b&gt;&lt;font style=&quot;font-size: 14px; background-color: rgb(230, 230, 230);&quot;&gt;id_cliente&lt;/font&gt;&lt;/b&gt;" style="ellipse;whiteSpace=wrap;html=1;labelBackgroundColor=#FFFFFF;fontSize=15;fontColor=#000000;fillColor=#FFFFFF;gradientColor=default;" vertex="1" parent="1">
          <mxGeometry x="330" y="100" width="100" height="30" as="geometry" />
        </mxCell>
        <mxCell id="8zJvEbX7JQ_z378_JHZw-3" value="&lt;b&gt;&lt;font color=&quot;#cc0000&quot; style=&quot;font-size: 12px;&quot;&gt;FK&lt;/font&gt;&lt;/b&gt;" style="text;html=1;align=center;verticalAlign=middle;resizable=0;points=[];autosize=1;strokeColor=none;fillColor=none;fontSize=14;fontColor=#000000;" vertex="1" parent="1">
          <mxGeometry x="425" y="130" width="40" height="30" as="geometry" />
        </mxCell>
        <mxCell id="8zJvEbX7JQ_z378_JHZw-4" value="&lt;b&gt;&lt;font color=&quot;#000099&quot; style=&quot;font-size: 20px;&quot;&gt;Segmento&lt;/font&gt;&lt;/b&gt;" style="rounded=0;whiteSpace=wrap;html=1;labelBackgroundColor=default;labelBorderColor=#3333FF;fillColor=#FFFF66;" vertex="1" parent="1">
          <mxGeometry x="420" y="-160" width="120" height="60" as="geometry" />
        </mxCell>
        <mxCell id="8zJvEbX7JQ_z378_JHZw-5" value="&lt;b&gt;Contiene&lt;/b&gt;" style="rhombus;whiteSpace=wrap;html=1;labelBackgroundColor=#E6E6E6;fontSize=14;fillColor=#CC0000;strokeColor=#b85450;gradientColor=default;" vertex="1" parent="1">
          <mxGeometry x="440" y="-75" width="90" height="80" as="geometry" />
        </mxCell>
        <mxCell id="8zJvEbX7JQ_z378_JHZw-6" value="&lt;span style=&quot;font-size: 14px; background-color: rgb(230, 230, 230);&quot;&gt;&lt;b&gt;id_Segmento&lt;/b&gt;&lt;/span&gt;" style="ellipse;whiteSpace=wrap;html=1;labelBackgroundColor=#FFFFFF;fontSize=15;fontColor=#000000;fillColor=#FFFFFF;gradientColor=default;" vertex="1" parent="1">
          <mxGeometry x="425" y="-190" width="100" height="30" as="geometry" />
        </mxCell>
        <mxCell id="8zJvEbX7JQ_z378_JHZw-7" value="&lt;b&gt;&lt;font color=&quot;#3333ff&quot; style=&quot;font-size: 12px;&quot;&gt;PK&lt;/font&gt;&lt;/b&gt;" style="text;html=1;align=center;verticalAlign=middle;resizable=0;points=[];autosize=1;strokeColor=none;fillColor=none;fontSize=14;fontColor=#000000;" vertex="1" parent="1">
          <mxGeometry x="534" y="-190" width="40" height="30" as="geometry" />
        </mxCell>
        <mxCell id="8zJvEbX7JQ_z378_JHZw-8" value="&lt;span style=&quot;font-size: 14px; background-color: rgb(230, 230, 230);&quot;&gt;&lt;b&gt;Descr Segm&lt;/b&gt;&lt;/span&gt;" style="ellipse;whiteSpace=wrap;html=1;labelBackgroundColor=#FFFFFF;fontSize=15;fontColor=#000000;fillColor=#FFFFFF;gradientColor=default;" vertex="1" parent="1">
          <mxGeometry x="425" y="-220" width="100" height="30" as="geometry" />
        </mxCell>
        <mxCell id="8zJvEbX7JQ_z378_JHZw-19" value="&lt;b&gt;&lt;font color=&quot;#000099&quot; style=&quot;font-size: 20px; background-color: rgb(255, 255, 255);&quot;&gt;Ordenes - Producto&lt;/font&gt;&lt;/b&gt;" style="rounded=0;whiteSpace=wrap;html=1;labelBorderColor=#3333FF;fillColor=#66FF66;" vertex="1" parent="1">
          <mxGeometry x="955" y="230" width="120" height="60" as="geometry" />
        </mxCell>
        <mxCell id="8zJvEbX7JQ_z378_JHZw-20" value="" style="endArrow=classic;html=1;rounded=0;fontSize=12;fontColor=#003300;entryX=0.5;entryY=0;entryDx=0;entryDy=0;" edge="1" parent="1" target="C1baLwybS-N-n2R99N6j-19">
          <mxGeometry width="50" height="50" relative="1" as="geometry">
            <mxPoint x="990" y="290" as="sourcePoint" />
            <mxPoint x="910" y="380" as="targetPoint" />
          </mxGeometry>
        </mxCell>
        <mxCell id="8zJvEbX7JQ_z378_JHZw-21" value="&lt;b&gt;&lt;font style=&quot;font-size: 14px; background-color: rgb(230, 230, 230);&quot;&gt;id_orden&lt;/font&gt;&lt;/b&gt;" style="ellipse;whiteSpace=wrap;html=1;labelBackgroundColor=#FFFFFF;fontSize=15;fontColor=#000000;fillColor=#FFFFFF;gradientColor=default;" vertex="1" parent="1">
          <mxGeometry x="960" y="200" width="100" height="30" as="geometry" />
        </mxCell>
        <mxCell id="8zJvEbX7JQ_z378_JHZw-22" value="&lt;b&gt;&lt;font style=&quot;font-size: 14px; background-color: rgb(230, 230, 230);&quot;&gt;id_producto&lt;/font&gt;&lt;/b&gt;" style="ellipse;whiteSpace=wrap;html=1;labelBackgroundColor=#FFFFFF;fontSize=15;fontColor=#000000;fillColor=#FFFFFF;gradientColor=default;" vertex="1" parent="1">
          <mxGeometry x="960" y="170" width="100" height="30" as="geometry" />
        </mxCell>
        <mxCell id="8zJvEbX7JQ_z378_JHZw-24" value="&lt;b&gt;&lt;font color=&quot;#cc0000&quot; style=&quot;font-size: 12px;&quot;&gt;FK&lt;/font&gt;&lt;/b&gt;" style="text;html=1;align=center;verticalAlign=middle;resizable=0;points=[];autosize=1;strokeColor=none;fillColor=none;fontSize=14;fontColor=#000000;" vertex="1" parent="1">
          <mxGeometry x="1050" y="200" width="40" height="30" as="geometry" />
        </mxCell>
        <mxCell id="8zJvEbX7JQ_z378_JHZw-25" value="&lt;b&gt;&lt;font color=&quot;#cc0000&quot; style=&quot;font-size: 12px;&quot;&gt;FK&lt;/font&gt;&lt;/b&gt;" style="text;html=1;align=center;verticalAlign=middle;resizable=0;points=[];autosize=1;strokeColor=none;fillColor=none;fontSize=14;fontColor=#000000;" vertex="1" parent="1">
          <mxGeometry x="1050" y="170" width="40" height="30" as="geometry" />
        </mxCell>
        <mxCell id="N08PNImcqQSm8ov4IWrH-1" value="&lt;b&gt;&lt;font color=&quot;#000099&quot; style=&quot;font-size: 20px;&quot;&gt;Cond Pago&lt;/font&gt;&lt;/b&gt;" style="rounded=0;whiteSpace=wrap;html=1;labelBackgroundColor=default;labelBorderColor=#3333FF;fillColor=#FFFF66;" vertex="1" parent="1">
          <mxGeometry x="750" y="-80" width="120" height="60" as="geometry" />
        </mxCell>
        <mxCell id="N08PNImcqQSm8ov4IWrH-2" value="&lt;span style=&quot;font-size: 14px; background-color: rgb(230, 230, 230);&quot;&gt;&lt;b&gt;id_Cond Pag&lt;/b&gt;&lt;/span&gt;" style="ellipse;whiteSpace=wrap;html=1;labelBackgroundColor=#FFFFFF;fontSize=15;fontColor=#000000;fillColor=#FFFFFF;gradientColor=default;" vertex="1" parent="1">
          <mxGeometry x="760" y="-110" width="100" height="30" as="geometry" />
        </mxCell>
        <mxCell id="N08PNImcqQSm8ov4IWrH-4" value="&lt;span style=&quot;font-size: 14px; background-color: rgb(230, 230, 230);&quot;&gt;&lt;b&gt;Descr Cond P&lt;/b&gt;&lt;/span&gt;" style="ellipse;whiteSpace=wrap;html=1;labelBackgroundColor=#FFFFFF;fontSize=15;fontColor=#000000;fillColor=#FFFFFF;gradientColor=default;" vertex="1" parent="1">
          <mxGeometry x="760" y="-140" width="100" height="30" as="geometry" />
        </mxCell>
        <mxCell id="N08PNImcqQSm8ov4IWrH-5" value="&lt;b&gt;&lt;font color=&quot;#3333ff&quot; style=&quot;font-size: 12px;&quot;&gt;PK&lt;/font&gt;&lt;/b&gt;" style="text;html=1;align=center;verticalAlign=middle;resizable=0;points=[];autosize=1;strokeColor=none;fillColor=none;fontSize=14;fontColor=#000000;" vertex="1" parent="1">
          <mxGeometry x="850" y="-110" width="40" height="30" as="geometry" />
        </mxCell>
        <mxCell id="N08PNImcqQSm8ov4IWrH-6" value="&lt;b&gt;&lt;font color=&quot;#000099&quot; style=&quot;font-size: 20px; background-color: rgb(255, 255, 255);&quot;&gt;Causa Retornos&lt;/font&gt;&lt;/b&gt;" style="rounded=0;whiteSpace=wrap;html=1;labelBorderColor=#3333FF;fillColor=#FFFF66;" vertex="1" parent="1">
          <mxGeometry x="-140" y="445" width="140" height="65" as="geometry" />
        </mxCell>
        <mxCell id="N08PNImcqQSm8ov4IWrH-7" value="&lt;b&gt;Tiene&lt;/b&gt;" style="rhombus;whiteSpace=wrap;html=1;labelBackgroundColor=#E6E6E6;fontSize=14;fontColor=#000000;fillColor=#CC0000;gradientColor=default;" vertex="1" parent="1">
          <mxGeometry x="60" y="445" width="90" height="80" as="geometry" />
        </mxCell>
        <mxCell id="N08PNImcqQSm8ov4IWrH-8" value="&lt;b&gt;Tiene&lt;/b&gt;" style="rhombus;whiteSpace=wrap;html=1;labelBackgroundColor=#E6E6E6;fontSize=14;fontColor=#000000;fillColor=#CC0000;gradientColor=default;" vertex="1" parent="1">
          <mxGeometry x="760" width="90" height="80" as="geometry" />
        </mxCell>
        <mxCell id="N08PNImcqQSm8ov4IWrH-19" value="" style="endArrow=classic;html=1;rounded=0;" edge="1" parent="1">
          <mxGeometry width="50" height="50" relative="1" as="geometry">
            <mxPoint x="700" y="340" as="sourcePoint" />
            <mxPoint x="800" y="90" as="targetPoint" />
          </mxGeometry>
        </mxCell>
        <mxCell id="N08PNImcqQSm8ov4IWrH-20" value="&lt;font color=&quot;#003300&quot;&gt;*&lt;/font&gt;" style="text;html=1;strokeColor=none;fillColor=none;align=center;verticalAlign=middle;whiteSpace=wrap;rounded=0;labelBackgroundColor=#E6E6E6;fontSize=12;fontColor=#3333FF;" vertex="1" parent="1">
          <mxGeometry x="715" y="325" width="30" height="30" as="geometry" />
        </mxCell>
        <mxCell id="N08PNImcqQSm8ov4IWrH-24" value="&lt;font color=&quot;#003300&quot;&gt;1:1&lt;/font&gt;" style="text;html=1;strokeColor=none;fillColor=none;align=center;verticalAlign=middle;whiteSpace=wrap;rounded=0;labelBackgroundColor=#E6E6E6;fontSize=12;fontColor=#3333FF;" vertex="1" parent="1">
          <mxGeometry x="855" y="20" width="30" height="30" as="geometry" />
        </mxCell>
        <mxCell id="N08PNImcqQSm8ov4IWrH-26" value="&lt;font color=&quot;#003300&quot;&gt;1&lt;/font&gt;" style="text;html=1;strokeColor=none;fillColor=none;align=center;verticalAlign=middle;whiteSpace=wrap;rounded=0;labelBackgroundColor=#E6E6E6;fontSize=12;fontColor=#3333FF;" vertex="1" parent="1">
          <mxGeometry x="725" y="285" width="30" height="30" as="geometry" />
        </mxCell>
        <mxCell id="N08PNImcqQSm8ov4IWrH-29" value="" style="endArrow=classic;html=1;rounded=0;" edge="1" parent="1">
          <mxGeometry width="50" height="50" relative="1" as="geometry">
            <mxPoint x="805" as="sourcePoint" />
            <mxPoint x="825" y="-20" as="targetPoint" />
          </mxGeometry>
        </mxCell>
        <mxCell id="N08PNImcqQSm8ov4IWrH-32" value="" style="endArrow=classic;html=1;rounded=0;exitX=0.244;exitY=0.15;exitDx=0;exitDy=0;exitPerimeter=0;" edge="1" parent="1" source="8zJvEbX7JQ_z378_JHZw-5">
          <mxGeometry width="50" height="50" relative="1" as="geometry">
            <mxPoint x="430" y="-70" as="sourcePoint" />
            <mxPoint x="460" y="-100" as="targetPoint" />
          </mxGeometry>
        </mxCell>
        <mxCell id="N08PNImcqQSm8ov4IWrH-33" value="" style="endArrow=classic;html=1;rounded=0;entryX=0.522;entryY=1.1;entryDx=0;entryDy=0;entryPerimeter=0;exitX=1.067;exitY=-0.033;exitDx=0;exitDy=0;exitPerimeter=0;" edge="1" parent="1" source="C1baLwybS-N-n2R99N6j-1" target="8zJvEbX7JQ_z378_JHZw-5">
          <mxGeometry width="50" height="50" relative="1" as="geometry">
            <mxPoint x="445" y="210" as="sourcePoint" />
            <mxPoint x="445" y="230.71067811865476" as="targetPoint" />
          </mxGeometry>
        </mxCell>
        <mxCell id="N08PNImcqQSm8ov4IWrH-34" value="&lt;font color=&quot;#003300&quot;&gt;1:1&lt;/font&gt;" style="text;html=1;strokeColor=none;fillColor=none;align=center;verticalAlign=middle;whiteSpace=wrap;rounded=0;labelBackgroundColor=#E6E6E6;fontSize=12;fontColor=#3333FF;" vertex="1" parent="1">
          <mxGeometry x="410" y="-55" width="30" height="30" as="geometry" />
        </mxCell>
        <mxCell id="N08PNImcqQSm8ov4IWrH-35" value="&lt;font color=&quot;#003300&quot;&gt;1&lt;/font&gt;" style="text;html=1;strokeColor=none;fillColor=none;align=center;verticalAlign=middle;whiteSpace=wrap;rounded=0;labelBackgroundColor=#E6E6E6;fontSize=12;fontColor=#3333FF;" vertex="1" parent="1">
          <mxGeometry x="835" y="-25" width="30" height="30" as="geometry" />
        </mxCell>
        <mxCell id="N08PNImcqQSm8ov4IWrH-38" value="&lt;font color=&quot;#003300&quot;&gt;1&lt;/font&gt;" style="text;html=1;strokeColor=none;fillColor=none;align=center;verticalAlign=middle;whiteSpace=wrap;rounded=0;labelBackgroundColor=#E6E6E6;fontSize=12;fontColor=#3333FF;" vertex="1" parent="1">
          <mxGeometry x="474" y="-105" width="30" height="30" as="geometry" />
        </mxCell>
        <mxCell id="N08PNImcqQSm8ov4IWrH-42" value="&lt;font color=&quot;#003300&quot;&gt;1&lt;/font&gt;" style="text;html=1;strokeColor=none;fillColor=none;align=center;verticalAlign=middle;whiteSpace=wrap;rounded=0;labelBackgroundColor=#E6E6E6;fontSize=12;fontColor=#3333FF;" vertex="1" parent="1">
          <mxGeometry x="450" y="180" width="30" height="30" as="geometry" />
        </mxCell>
        <mxCell id="N08PNImcqQSm8ov4IWrH-43" value="" style="endArrow=classic;html=1;rounded=0;entryX=1;entryY=0.5;entryDx=0;entryDy=0;" edge="1" parent="1">
          <mxGeometry width="50" height="50" relative="1" as="geometry">
            <mxPoint x="210" y="486" as="sourcePoint" />
            <mxPoint x="150" y="486.16" as="targetPoint" />
          </mxGeometry>
        </mxCell>
        <mxCell id="N08PNImcqQSm8ov4IWrH-44" value="" style="endArrow=classic;html=1;rounded=0;entryX=1;entryY=0.5;entryDx=0;entryDy=0;" edge="1" parent="1">
          <mxGeometry width="50" height="50" relative="1" as="geometry">
            <mxPoint x="60" y="484.5" as="sourcePoint" />
            <mxPoint y="484.65999999999985" as="targetPoint" />
          </mxGeometry>
        </mxCell>
        <mxCell id="N08PNImcqQSm8ov4IWrH-45" value="&lt;font color=&quot;#003300&quot;&gt;1:1&lt;/font&gt;" style="text;html=1;strokeColor=none;fillColor=none;align=center;verticalAlign=middle;whiteSpace=wrap;rounded=0;labelBackgroundColor=#E6E6E6;fontSize=12;fontColor=#3333FF;" vertex="1" parent="1">
          <mxGeometry x="90" y="530" width="30" height="30" as="geometry" />
        </mxCell>
        <mxCell id="N08PNImcqQSm8ov4IWrH-46" value="&lt;font color=&quot;#003300&quot;&gt;1&lt;/font&gt;" style="text;html=1;strokeColor=none;fillColor=none;align=center;verticalAlign=middle;whiteSpace=wrap;rounded=0;labelBackgroundColor=#E6E6E6;fontSize=12;fontColor=#3333FF;" vertex="1" parent="1">
          <mxGeometry y="450" width="30" height="30" as="geometry" />
        </mxCell>
        <mxCell id="N08PNImcqQSm8ov4IWrH-47" value="&lt;font color=&quot;#003300&quot;&gt;1&lt;/font&gt;" style="text;html=1;strokeColor=none;fillColor=none;align=center;verticalAlign=middle;whiteSpace=wrap;rounded=0;labelBackgroundColor=#E6E6E6;fontSize=12;fontColor=#3333FF;" vertex="1" parent="1">
          <mxGeometry x="180" y="460" width="30" height="30" as="geometry" />
        </mxCell>
        <mxCell id="N08PNImcqQSm8ov4IWrH-48" value="&lt;span style=&quot;font-size: 14px; background-color: rgb(230, 230, 230);&quot;&gt;&lt;b&gt;Desc causa&lt;/b&gt;&lt;/span&gt;" style="ellipse;whiteSpace=wrap;html=1;labelBackgroundColor=#FFFFFF;fontSize=15;fontColor=#000000;fillColor=#FFFFFF;gradientColor=default;" vertex="1" parent="1">
          <mxGeometry x="-110" y="375" width="100" height="30" as="geometry" />
        </mxCell>
        <mxCell id="N08PNImcqQSm8ov4IWrH-49" value="&lt;span style=&quot;font-size: 14px; background-color: rgb(230, 230, 230);&quot;&gt;&lt;b&gt;id_Causa&lt;/b&gt;&lt;/span&gt;" style="ellipse;whiteSpace=wrap;html=1;labelBackgroundColor=#FFFFFF;fontSize=15;fontColor=#000000;fillColor=#FFFFFF;gradientColor=default;" vertex="1" parent="1">
          <mxGeometry x="-110" y="410" width="100" height="30" as="geometry" />
        </mxCell>
        <mxCell id="N08PNImcqQSm8ov4IWrH-51" value="&lt;b&gt;&lt;font color=&quot;#3333ff&quot; style=&quot;font-size: 12px;&quot;&gt;PK&lt;/font&gt;&lt;/b&gt;" style="text;html=1;align=center;verticalAlign=middle;resizable=0;points=[];autosize=1;strokeColor=none;fillColor=none;fontSize=14;fontColor=#000000;" vertex="1" parent="1">
          <mxGeometry x="-10" y="410" width="40" height="30" as="geometry" />
        </mxCell>
        <mxCell id="N08PNImcqQSm8ov4IWrH-53" value="&lt;b&gt;&lt;font color=&quot;#cc0000&quot; style=&quot;font-size: 12px;&quot;&gt;FK&lt;/font&gt;&lt;/b&gt;" style="text;html=1;align=center;verticalAlign=middle;resizable=0;points=[];autosize=1;strokeColor=none;fillColor=none;fontSize=14;fontColor=#000000;" vertex="1" parent="1">
          <mxGeometry x="680" y="260" width="40" height="30" as="geometry" />
        </mxCell>
        <mxCell id="N08PNImcqQSm8ov4IWrH-55" value="&lt;b&gt;&lt;font color=&quot;#cc0000&quot; style=&quot;font-size: 12px;&quot;&gt;FK&lt;/font&gt;&lt;/b&gt;" style="text;html=1;align=center;verticalAlign=middle;resizable=0;points=[];autosize=1;strokeColor=none;fillColor=none;fontSize=14;fontColor=#000000;" vertex="1" parent="1">
          <mxGeometry x="320" y="580" width="40" height="30" as="geometry" />
        </mxCell>
        <mxCell id="N08PNImcqQSm8ov4IWrH-63" value="&lt;b&gt;&lt;font style=&quot;font-size: 14px; background-color: rgb(230, 230, 230);&quot;&gt;Id Cond pag&lt;/font&gt;&lt;/b&gt;" style="ellipse;whiteSpace=wrap;html=1;labelBackgroundColor=#FFFFFF;fontSize=15;fontColor=#000000;fillColor=#FFFFFF;gradientColor=default;" vertex="1" parent="1">
          <mxGeometry x="585" y="110" width="100" height="30" as="geometry" />
        </mxCell>
        <mxCell id="N08PNImcqQSm8ov4IWrH-64" value="&lt;b&gt;&lt;font color=&quot;#cc0000&quot; style=&quot;font-size: 12px;&quot;&gt;FK&lt;/font&gt;&lt;/b&gt;" style="text;html=1;align=center;verticalAlign=middle;resizable=0;points=[];autosize=1;strokeColor=none;fillColor=none;fontSize=14;fontColor=#000000;" vertex="1" parent="1">
          <mxGeometry x="690" y="110" width="40" height="30" as="geometry" />
        </mxCell>
        <mxCell id="N08PNImcqQSm8ov4IWrH-66" value="&lt;b&gt;&lt;font color=&quot;#cc0000&quot; style=&quot;font-size: 12px;&quot;&gt;FK&lt;/font&gt;&lt;/b&gt;" style="text;html=1;align=center;verticalAlign=middle;resizable=0;points=[];autosize=1;strokeColor=none;fillColor=none;fontSize=14;fontColor=#000000;" vertex="1" parent="1">
          <mxGeometry x="1241" y="420" width="40" height="30" as="geometry" />
        </mxCell>
        <mxCell id="N08PNImcqQSm8ov4IWrH-68" value="&lt;b&gt;&lt;font color=&quot;#000099&quot; style=&quot;font-size: 20px; background-color: rgb(255, 255, 255);&quot;&gt;Ship Mode&lt;/font&gt;&lt;/b&gt;" style="rounded=0;whiteSpace=wrap;html=1;labelBorderColor=#3333FF;fillColor=#FFFF66;" vertex="1" parent="1">
          <mxGeometry x="875" y="480" width="120" height="60" as="geometry" />
        </mxCell>
        <mxCell id="N08PNImcqQSm8ov4IWrH-69" value="&lt;b&gt;&lt;font style=&quot;font-size: 14px; background-color: rgb(230, 230, 230);&quot;&gt;id Ship mode&lt;/font&gt;&lt;/b&gt;" style="ellipse;whiteSpace=wrap;html=1;labelBackgroundColor=#FFFFFF;fontSize=15;fontColor=#000000;fillColor=#FFFFFF;gradientColor=default;" vertex="1" parent="1">
          <mxGeometry x="885" y="540" width="100" height="30" as="geometry" />
        </mxCell>
        <mxCell id="N08PNImcqQSm8ov4IWrH-70" value="&lt;b&gt;&lt;font style=&quot;font-size: 14px; background-color: rgb(230, 230, 230);&quot;&gt;Desc Ship M&lt;/font&gt;&lt;/b&gt;" style="ellipse;whiteSpace=wrap;html=1;labelBackgroundColor=#FFFFFF;fontSize=15;fontColor=#000000;fillColor=#FFFFFF;gradientColor=default;" vertex="1" parent="1">
          <mxGeometry x="885" y="570" width="100" height="30" as="geometry" />
        </mxCell>
        <mxCell id="N08PNImcqQSm8ov4IWrH-71" value="&lt;b&gt;&lt;font color=&quot;#3333ff&quot; style=&quot;font-size: 12px;&quot;&gt;PK&lt;/font&gt;&lt;/b&gt;" style="text;html=1;align=center;verticalAlign=middle;resizable=0;points=[];autosize=1;strokeColor=none;fillColor=none;fontSize=14;fontColor=#000000;" vertex="1" parent="1">
          <mxGeometry x="980" y="540" width="40" height="30" as="geometry" />
        </mxCell>
        <mxCell id="N08PNImcqQSm8ov4IWrH-72" value="&lt;b&gt;Tiene&lt;/b&gt;" style="rhombus;whiteSpace=wrap;html=1;labelBackgroundColor=#E6E6E6;fontSize=14;fontColor=#000000;fillColor=#CC0000;gradientColor=default;" vertex="1" parent="1">
          <mxGeometry x="769" y="400" width="90" height="80" as="geometry" />
        </mxCell>
        <mxCell id="N08PNImcqQSm8ov4IWrH-73" value="" style="endArrow=classic;html=1;rounded=0;fontSize=12;fontColor=#003300;entryX=0.056;entryY=0.35;entryDx=0;entryDy=0;entryPerimeter=0;" edge="1" parent="1" target="N08PNImcqQSm8ov4IWrH-72">
          <mxGeometry width="50" height="50" relative="1" as="geometry">
            <mxPoint x="700" y="375" as="sourcePoint" />
            <mxPoint x="740" y="465" as="targetPoint" />
          </mxGeometry>
        </mxCell>
        <mxCell id="N08PNImcqQSm8ov4IWrH-74" value="&lt;font color=&quot;#003300&quot;&gt;1&lt;/font&gt;" style="text;html=1;strokeColor=none;fillColor=none;align=center;verticalAlign=middle;whiteSpace=wrap;rounded=0;labelBackgroundColor=#E6E6E6;fontSize=12;fontColor=#3333FF;" vertex="1" parent="1">
          <mxGeometry x="739" y="370" width="30" height="30" as="geometry" />
        </mxCell>
        <mxCell id="N08PNImcqQSm8ov4IWrH-77" value="&lt;font color=&quot;#003300&quot;&gt;1&lt;/font&gt;" style="text;html=1;strokeColor=none;fillColor=none;align=center;verticalAlign=middle;whiteSpace=wrap;rounded=0;labelBackgroundColor=#E6E6E6;fontSize=12;fontColor=#3333FF;" vertex="1" parent="1">
          <mxGeometry x="835" y="495" width="30" height="30" as="geometry" />
        </mxCell>
        <mxCell id="N08PNImcqQSm8ov4IWrH-78" value="" style="endArrow=classic;html=1;rounded=0;fontSize=12;fontColor=#003300;" edge="1" parent="1">
          <mxGeometry width="50" height="50" relative="1" as="geometry">
            <mxPoint x="827" y="470" as="sourcePoint" />
            <mxPoint x="870" y="500" as="targetPoint" />
          </mxGeometry>
        </mxCell>
        <mxCell id="N08PNImcqQSm8ov4IWrH-81" value="&lt;font color=&quot;#003300&quot;&gt;N:M&lt;/font&gt;" style="text;html=1;strokeColor=none;fillColor=none;align=center;verticalAlign=middle;whiteSpace=wrap;rounded=0;labelBackgroundColor=#E6E6E6;fontSize=12;fontColor=#3333FF;" vertex="1" parent="1">
          <mxGeometry x="950" y="395" width="30" height="30" as="geometry" />
        </mxCell>
        <mxCell id="N08PNImcqQSm8ov4IWrH-83" value="&lt;font color=&quot;#003300&quot;&gt;1:1&lt;/font&gt;" style="text;html=1;strokeColor=none;fillColor=none;align=center;verticalAlign=middle;whiteSpace=wrap;rounded=0;labelBackgroundColor=#E6E6E6;fontSize=12;fontColor=#3333FF;" vertex="1" parent="1">
          <mxGeometry x="860" y="425" width="30" height="30" as="geometry" />
        </mxCell>
        <mxCell id="N08PNImcqQSm8ov4IWrH-85" value="&lt;b&gt;&lt;font color=&quot;#000099&quot; style=&quot;font-size: 20px; background-color: rgb(255, 255, 255);&quot;&gt;Subcateg&lt;/font&gt;&lt;/b&gt;" style="rounded=0;whiteSpace=wrap;html=1;labelBorderColor=#3333FF;fillColor=#66FF66;" vertex="1" parent="1">
          <mxGeometry x="1590" y="415" width="120" height="60" as="geometry" />
        </mxCell>
        <mxCell id="N08PNImcqQSm8ov4IWrH-86" value="&lt;font color=&quot;#000099&quot;&gt;&lt;span style=&quot;font-size: 20px; background-color: rgb(255, 255, 255);&quot;&gt;&lt;b&gt;Categoria&lt;/b&gt;&lt;/span&gt;&lt;/font&gt;" style="rounded=0;whiteSpace=wrap;html=1;labelBorderColor=#3333FF;fillColor=#FFFF66;" vertex="1" parent="1">
          <mxGeometry x="1595" y="190" width="120" height="60" as="geometry" />
        </mxCell>
        <mxCell id="N08PNImcqQSm8ov4IWrH-88" value="&lt;b&gt;Tiene&lt;/b&gt;" style="rhombus;whiteSpace=wrap;html=1;labelBackgroundColor=#E6E6E6;fontSize=14;fontColor=#000000;fillColor=#CC0000;gradientColor=default;" vertex="1" parent="1">
          <mxGeometry x="1410" y="410" width="90" height="80" as="geometry" />
        </mxCell>
        <mxCell id="N08PNImcqQSm8ov4IWrH-92" value="" style="endArrow=classic;html=1;rounded=0;entryX=0;entryY=0.5;entryDx=0;entryDy=0;" edge="1" parent="1" target="N08PNImcqQSm8ov4IWrH-88">
          <mxGeometry width="50" height="50" relative="1" as="geometry">
            <mxPoint x="1270" y="385" as="sourcePoint" />
            <mxPoint x="1330" y="415" as="targetPoint" />
          </mxGeometry>
        </mxCell>
        <mxCell id="N08PNImcqQSm8ov4IWrH-94" value="" style="endArrow=classic;html=1;rounded=0;" edge="1" parent="1">
          <mxGeometry width="50" height="50" relative="1" as="geometry">
            <mxPoint x="1500" y="450" as="sourcePoint" />
            <mxPoint x="1580" y="450" as="targetPoint" />
          </mxGeometry>
        </mxCell>
        <mxCell id="N08PNImcqQSm8ov4IWrH-108" value="&lt;font color=&quot;#003300&quot;&gt;1:1&lt;/font&gt;" style="text;html=1;strokeColor=none;fillColor=none;align=center;verticalAlign=middle;whiteSpace=wrap;rounded=0;labelBackgroundColor=#E6E6E6;fontSize=12;fontColor=#3333FF;" vertex="1" parent="1">
          <mxGeometry x="1440" y="490" width="30" height="30" as="geometry" />
        </mxCell>
        <mxCell id="N08PNImcqQSm8ov4IWrH-113" value="&lt;font color=&quot;#003300&quot;&gt;1&lt;/font&gt;" style="text;html=1;strokeColor=none;fillColor=none;align=center;verticalAlign=middle;whiteSpace=wrap;rounded=0;labelBackgroundColor=#E6E6E6;fontSize=12;fontColor=#3333FF;" vertex="1" parent="1">
          <mxGeometry x="1550" y="465" width="30" height="30" as="geometry" />
        </mxCell>
        <mxCell id="N08PNImcqQSm8ov4IWrH-115" value="&lt;font color=&quot;#003300&quot;&gt;1&lt;/font&gt;" style="text;html=1;strokeColor=none;fillColor=none;align=center;verticalAlign=middle;whiteSpace=wrap;rounded=0;labelBackgroundColor=#E6E6E6;fontSize=12;fontColor=#3333FF;" vertex="1" parent="1">
          <mxGeometry x="1281" y="370" width="30" height="30" as="geometry" />
        </mxCell>
        <mxCell id="N08PNImcqQSm8ov4IWrH-117" value="&lt;span style=&quot;font-size: 14px; background-color: rgb(230, 230, 230);&quot;&gt;&lt;b&gt;Id categoria&lt;/b&gt;&lt;/span&gt;" style="ellipse;whiteSpace=wrap;html=1;labelBackgroundColor=#FFFFFF;fontSize=15;fontColor=#000000;fillColor=#FFFFFF;gradientColor=default;" vertex="1" parent="1">
          <mxGeometry x="1605" y="160" width="100" height="30" as="geometry" />
        </mxCell>
        <mxCell id="N08PNImcqQSm8ov4IWrH-118" value="&lt;b&gt;&lt;font style=&quot;font-size: 14px; background-color: rgb(230, 230, 230);&quot;&gt;Id Subcateg&lt;/font&gt;&lt;/b&gt;" style="ellipse;whiteSpace=wrap;html=1;labelBackgroundColor=#FFFFFF;fontSize=15;fontColor=#000000;fillColor=#FFFFFF;gradientColor=default;" vertex="1" parent="1">
          <mxGeometry x="1600" y="480" width="100" height="30" as="geometry" />
        </mxCell>
        <mxCell id="N08PNImcqQSm8ov4IWrH-119" value="&lt;span style=&quot;font-size: 14px; background-color: rgb(230, 230, 230);&quot;&gt;&lt;b&gt;Nombre subc&lt;/b&gt;&lt;/span&gt;" style="ellipse;whiteSpace=wrap;html=1;labelBackgroundColor=#FFFFFF;fontSize=15;fontColor=#000000;fillColor=#FFFFFF;gradientColor=default;" vertex="1" parent="1">
          <mxGeometry x="1600" y="510" width="100" height="30" as="geometry" />
        </mxCell>
        <mxCell id="N08PNImcqQSm8ov4IWrH-120" value="&lt;span style=&quot;font-size: 14px; background-color: rgb(230, 230, 230);&quot;&gt;&lt;b&gt;Nombre cat&lt;/b&gt;&lt;/span&gt;" style="ellipse;whiteSpace=wrap;html=1;labelBackgroundColor=#FFFFFF;fontSize=15;fontColor=#000000;fillColor=#FFFFFF;gradientColor=default;" vertex="1" parent="1">
          <mxGeometry x="1600" y="130" width="100" height="30" as="geometry" />
        </mxCell>
        <mxCell id="N08PNImcqQSm8ov4IWrH-121" value="&lt;b&gt;&lt;font color=&quot;#3333ff&quot; style=&quot;font-size: 12px;&quot;&gt;PK&lt;/font&gt;&lt;/b&gt;" style="text;html=1;align=center;verticalAlign=middle;resizable=0;points=[];autosize=1;strokeColor=none;fillColor=none;fontSize=14;fontColor=#000000;" vertex="1" parent="1">
          <mxGeometry x="1695" y="160" width="40" height="30" as="geometry" />
        </mxCell>
        <mxCell id="N08PNImcqQSm8ov4IWrH-122" value="&lt;b&gt;&lt;font color=&quot;#3333ff&quot; style=&quot;font-size: 12px;&quot;&gt;PK&lt;/font&gt;&lt;/b&gt;" style="text;html=1;align=center;verticalAlign=middle;resizable=0;points=[];autosize=1;strokeColor=none;fillColor=none;fontSize=14;fontColor=#000000;" vertex="1" parent="1">
          <mxGeometry x="1700" y="480" width="40" height="30" as="geometry" />
        </mxCell>
        <mxCell id="N08PNImcqQSm8ov4IWrH-133" value="&lt;b&gt;&lt;font style=&quot;font-size: 14px; background-color: rgb(230, 230, 230);&quot;&gt;Id salesman&lt;/font&gt;&lt;/b&gt;" style="ellipse;whiteSpace=wrap;html=1;labelBackgroundColor=#FFFFFF;fontSize=15;fontColor=#000000;fillColor=#FFFFFF;gradientColor=default;" vertex="1" parent="1">
          <mxGeometry x="1010" y="780" width="100" height="30" as="geometry" />
        </mxCell>
        <mxCell id="N08PNImcqQSm8ov4IWrH-134" value="&lt;b&gt;&lt;font color=&quot;#cc0000&quot; style=&quot;font-size: 12px;&quot;&gt;FK&lt;/font&gt;&lt;/b&gt;" style="text;html=1;align=center;verticalAlign=middle;resizable=0;points=[];autosize=1;strokeColor=none;fillColor=none;fontSize=14;fontColor=#000000;" vertex="1" parent="1">
          <mxGeometry x="770" y="780" width="40" height="30" as="geometry" />
        </mxCell>
        <mxCell id="N08PNImcqQSm8ov4IWrH-135" value="&lt;b&gt;&lt;font color=&quot;#000099&quot; style=&quot;font-size: 20px; background-color: rgb(255, 255, 255);&quot;&gt;Salesman&lt;/font&gt;&lt;/b&gt;" style="rounded=0;whiteSpace=wrap;html=1;labelBorderColor=#3333FF;fillColor=#FFFF66;" vertex="1" parent="1">
          <mxGeometry x="1000" y="720" width="120" height="60" as="geometry" />
        </mxCell>
        <mxCell id="N08PNImcqQSm8ov4IWrH-136" value="&lt;b&gt;&lt;font style=&quot;font-size: 14px; background-color: rgb(230, 230, 230);&quot;&gt;Id salesman&lt;/font&gt;&lt;/b&gt;" style="ellipse;whiteSpace=wrap;html=1;labelBackgroundColor=#FFFFFF;fontSize=15;fontColor=#000000;fillColor=#FFFFFF;gradientColor=default;" vertex="1" parent="1">
          <mxGeometry x="679" y="780" width="100" height="30" as="geometry" />
        </mxCell>
        <mxCell id="N08PNImcqQSm8ov4IWrH-137" value="&lt;b&gt;&lt;font color=&quot;#3333ff&quot; style=&quot;font-size: 12px;&quot;&gt;PK&lt;/font&gt;&lt;/b&gt;" style="text;html=1;align=center;verticalAlign=middle;resizable=0;points=[];autosize=1;strokeColor=none;fillColor=none;fontSize=14;fontColor=#000000;" vertex="1" parent="1">
          <mxGeometry x="1110" y="780" width="40" height="30" as="geometry" />
        </mxCell>
        <mxCell id="N08PNImcqQSm8ov4IWrH-139" value="&lt;b&gt;&lt;font style=&quot;font-size: 14px; background-color: rgb(230, 230, 230);&quot;&gt;Nombre vend&lt;/font&gt;&lt;/b&gt;" style="ellipse;whiteSpace=wrap;html=1;labelBackgroundColor=#FFFFFF;fontSize=15;fontColor=#000000;fillColor=#FFFFFF;gradientColor=default;" vertex="1" parent="1">
          <mxGeometry x="1010" y="810" width="100" height="30" as="geometry" />
        </mxCell>
        <mxCell id="N08PNImcqQSm8ov4IWrH-140" value="&lt;b&gt;Tiene&lt;/b&gt;" style="rhombus;whiteSpace=wrap;html=1;labelBackgroundColor=#E6E6E6;fontSize=14;fontColor=#000000;fillColor=#CC0000;gradientColor=default;" vertex="1" parent="1">
          <mxGeometry x="875" y="645" width="90" height="80" as="geometry" />
        </mxCell>
        <mxCell id="N08PNImcqQSm8ov4IWrH-141" value="" style="endArrow=classic;html=1;rounded=0;" edge="1" parent="1">
          <mxGeometry width="50" height="50" relative="1" as="geometry">
            <mxPoint x="780" y="690" as="sourcePoint" />
            <mxPoint x="870" y="690" as="targetPoint" />
          </mxGeometry>
        </mxCell>
        <mxCell id="N08PNImcqQSm8ov4IWrH-142" value="" style="endArrow=classic;html=1;rounded=0;entryX=0.25;entryY=0;entryDx=0;entryDy=0;" edge="1" parent="1" target="N08PNImcqQSm8ov4IWrH-135">
          <mxGeometry width="50" height="50" relative="1" as="geometry">
            <mxPoint x="970" y="690" as="sourcePoint" />
            <mxPoint x="1020" y="640" as="targetPoint" />
          </mxGeometry>
        </mxCell>
        <mxCell id="N08PNImcqQSm8ov4IWrH-145" value="&lt;font color=&quot;#003300&quot;&gt;1&lt;/font&gt;" style="text;html=1;strokeColor=none;fillColor=none;align=center;verticalAlign=middle;whiteSpace=wrap;rounded=0;labelBackgroundColor=#E6E6E6;fontSize=12;fontColor=#3333FF;" vertex="1" parent="1">
          <mxGeometry x="1035" y="695" width="30" height="30" as="geometry" />
        </mxCell>
        <mxCell id="N08PNImcqQSm8ov4IWrH-147" value="&lt;font color=&quot;#003300&quot;&gt;1&lt;/font&gt;" style="text;html=1;strokeColor=none;fillColor=none;align=center;verticalAlign=middle;whiteSpace=wrap;rounded=0;labelBackgroundColor=#E6E6E6;fontSize=12;fontColor=#3333FF;" vertex="1" parent="1">
          <mxGeometry x="795" y="665" width="30" height="30" as="geometry" />
        </mxCell>
        <mxCell id="N08PNImcqQSm8ov4IWrH-150" value="&lt;font color=&quot;#003300&quot;&gt;1:1&lt;/font&gt;" style="text;html=1;strokeColor=none;fillColor=none;align=center;verticalAlign=middle;whiteSpace=wrap;rounded=0;labelBackgroundColor=#E6E6E6;fontSize=12;fontColor=#3333FF;" vertex="1" parent="1">
          <mxGeometry x="905" y="730" width="30" height="30" as="geometry" />
        </mxCell>
        <mxCell id="N08PNImcqQSm8ov4IWrH-151" value="&lt;b&gt;&lt;font style=&quot;font-size: 14px; background-color: rgb(230, 230, 230);&quot;&gt;Nombre cp&lt;/font&gt;&lt;/b&gt;" style="ellipse;whiteSpace=wrap;html=1;labelBackgroundColor=#FFFFFF;fontSize=15;fontColor=#000000;fillColor=#FFFFFF;gradientColor=default;" vertex="1" parent="1">
          <mxGeometry x="530" y="755" width="100" height="30" as="geometry" />
        </mxCell>
        <mxCell id="N08PNImcqQSm8ov4IWrH-152" value="&lt;b&gt;&lt;font color=&quot;#000099&quot; style=&quot;font-size: 20px; background-color: rgb(255, 255, 255);&quot;&gt;Codigo Postal&lt;/font&gt;&lt;/b&gt;" style="rounded=0;whiteSpace=wrap;html=1;labelBorderColor=#3333FF;fillColor=#66FF66;" vertex="1" parent="1">
          <mxGeometry x="514" y="665" width="120" height="60" as="geometry" />
        </mxCell>
        <mxCell id="N08PNImcqQSm8ov4IWrH-153" value="&lt;b&gt;&lt;font color=&quot;#000099&quot; style=&quot;font-size: 20px; background-color: rgb(255, 255, 255);&quot;&gt;Estado&lt;/font&gt;&lt;/b&gt;" style="rounded=0;whiteSpace=wrap;html=1;labelBorderColor=#3333FF;fillColor=#66FF66;" vertex="1" parent="1">
          <mxGeometry x="-45" y="820" width="120" height="60" as="geometry" />
        </mxCell>
        <mxCell id="N08PNImcqQSm8ov4IWrH-154" value="&lt;b&gt;&lt;font color=&quot;#000099&quot; style=&quot;font-size: 20px; background-color: rgb(255, 255, 255);&quot;&gt;Pais&lt;/font&gt;&lt;/b&gt;" style="rounded=0;whiteSpace=wrap;html=1;labelBorderColor=#3333FF;fillColor=#FFFF66;" vertex="1" parent="1">
          <mxGeometry x="424" y="970" width="120" height="60" as="geometry" />
        </mxCell>
        <mxCell id="N08PNImcqQSm8ov4IWrH-157" value="&lt;b&gt;Tiene&lt;/b&gt;" style="rhombus;whiteSpace=wrap;html=1;labelBackgroundColor=#E6E6E6;fontSize=14;fontColor=#000000;fillColor=#CC0000;gradientColor=default;" vertex="1" parent="1">
          <mxGeometry x="-20" y="700" width="90" height="80" as="geometry" />
        </mxCell>
        <mxCell id="N08PNImcqQSm8ov4IWrH-160" value="&lt;b&gt;Tiene&lt;/b&gt;" style="rhombus;whiteSpace=wrap;html=1;labelBackgroundColor=#E6E6E6;fontSize=14;fontColor=#000000;fillColor=#CC0000;gradientColor=default;" vertex="1" parent="1">
          <mxGeometry x="185" y="945" width="90" height="80" as="geometry" />
        </mxCell>
        <mxCell id="N08PNImcqQSm8ov4IWrH-161" value="&lt;b&gt;Tiene&lt;/b&gt;" style="rhombus;whiteSpace=wrap;html=1;labelBackgroundColor=#E6E6E6;fontSize=14;fontColor=#000000;fillColor=#CC0000;gradientColor=default;" vertex="1" parent="1">
          <mxGeometry x="385" y="690" width="90" height="80" as="geometry" />
        </mxCell>
        <mxCell id="N08PNImcqQSm8ov4IWrH-165" value="" style="endArrow=classic;html=1;rounded=0;entryX=0;entryY=0.5;entryDx=0;entryDy=0;" edge="1" parent="1" target="N08PNImcqQSm8ov4IWrH-152">
          <mxGeometry width="50" height="50" relative="1" as="geometry">
            <mxPoint x="435" y="690" as="sourcePoint" />
            <mxPoint x="485" y="705" as="targetPoint" />
          </mxGeometry>
        </mxCell>
        <mxCell id="N08PNImcqQSm8ov4IWrH-168" value="&lt;b&gt;&lt;font style=&quot;font-size: 14px; background-color: rgb(230, 230, 230);&quot;&gt;Id Estado&lt;/font&gt;&lt;/b&gt;" style="ellipse;whiteSpace=wrap;html=1;labelBackgroundColor=#FFFFFF;fontSize=15;fontColor=#000000;fillColor=#FFFFFF;gradientColor=default;" vertex="1" parent="1">
          <mxGeometry x="180" y="800" width="100" height="30" as="geometry" />
        </mxCell>
        <mxCell id="N08PNImcqQSm8ov4IWrH-169" value="&lt;b&gt;&lt;font style=&quot;font-size: 14px; background-color: rgb(230, 230, 230);&quot;&gt;Nombre Ciud&lt;/font&gt;&lt;/b&gt;" style="ellipse;whiteSpace=wrap;html=1;labelBackgroundColor=#FFFFFF;fontSize=15;fontColor=#000000;fillColor=#FFFFFF;gradientColor=default;" vertex="1" parent="1">
          <mxGeometry x="180" y="770" width="100" height="30" as="geometry" />
        </mxCell>
        <mxCell id="N08PNImcqQSm8ov4IWrH-170" value="&lt;b&gt;&lt;font style=&quot;font-size: 14px; background-color: rgb(230, 230, 230);&quot;&gt;Id Ciudad&lt;/font&gt;&lt;/b&gt;" style="ellipse;whiteSpace=wrap;html=1;labelBackgroundColor=#FFFFFF;fontSize=15;fontColor=#000000;fillColor=#FFFFFF;gradientColor=default;" vertex="1" parent="1">
          <mxGeometry x="180" y="740" width="100" height="30" as="geometry" />
        </mxCell>
        <mxCell id="N08PNImcqQSm8ov4IWrH-171" value="&lt;b&gt;&lt;font style=&quot;font-size: 14px; background-color: rgb(230, 230, 230);&quot;&gt;Id Pais&lt;/font&gt;&lt;/b&gt;" style="ellipse;whiteSpace=wrap;html=1;labelBackgroundColor=#FFFFFF;fontSize=15;fontColor=#000000;fillColor=#FFFFFF;gradientColor=default;" vertex="1" parent="1">
          <mxGeometry x="434" y="900" width="100" height="30" as="geometry" />
        </mxCell>
        <mxCell id="N08PNImcqQSm8ov4IWrH-172" value="&lt;b&gt;&lt;font style=&quot;font-size: 14px; background-color: rgb(230, 230, 230);&quot;&gt;Nombre pais&lt;/font&gt;&lt;/b&gt;" style="ellipse;whiteSpace=wrap;html=1;labelBackgroundColor=#FFFFFF;fontSize=15;fontColor=#000000;fillColor=#FFFFFF;gradientColor=default;" vertex="1" parent="1">
          <mxGeometry x="435" y="930" width="100" height="30" as="geometry" />
        </mxCell>
        <mxCell id="N08PNImcqQSm8ov4IWrH-173" value="&lt;b&gt;&lt;font style=&quot;font-size: 14px; background-color: rgb(230, 230, 230);&quot;&gt;Id Ciudad&lt;/font&gt;&lt;/b&gt;" style="ellipse;whiteSpace=wrap;html=1;labelBackgroundColor=#FFFFFF;fontSize=15;fontColor=#000000;fillColor=#FFFFFF;gradientColor=default;" vertex="1" parent="1">
          <mxGeometry x="530" y="785" width="100" height="30" as="geometry" />
        </mxCell>
        <mxCell id="N08PNImcqQSm8ov4IWrH-174" value="&lt;b&gt;&lt;font style=&quot;font-size: 14px; background-color: rgb(230, 230, 230);&quot;&gt;Id Pais&lt;/font&gt;&lt;/b&gt;" style="ellipse;whiteSpace=wrap;html=1;labelBackgroundColor=#FFFFFF;fontSize=15;fontColor=#000000;fillColor=#FFFFFF;gradientColor=default;" vertex="1" parent="1">
          <mxGeometry x="-45" y="940" width="100" height="30" as="geometry" />
        </mxCell>
        <mxCell id="N08PNImcqQSm8ov4IWrH-175" value="&lt;b&gt;&lt;font style=&quot;font-size: 14px; background-color: rgb(230, 230, 230);&quot;&gt;Nombre Est&lt;/font&gt;&lt;/b&gt;" style="ellipse;whiteSpace=wrap;html=1;labelBackgroundColor=#FFFFFF;fontSize=15;fontColor=#000000;fillColor=#FFFFFF;gradientColor=default;" vertex="1" parent="1">
          <mxGeometry x="-45" y="910" width="100" height="30" as="geometry" />
        </mxCell>
        <mxCell id="N08PNImcqQSm8ov4IWrH-176" value="&lt;span style=&quot;font-size: 14px; background-color: rgb(230, 230, 230);&quot;&gt;&lt;b&gt;Id Estado&lt;/b&gt;&lt;/span&gt;" style="ellipse;whiteSpace=wrap;html=1;labelBackgroundColor=#FFFFFF;fontSize=15;fontColor=#000000;fillColor=#FFFFFF;gradientColor=default;" vertex="1" parent="1">
          <mxGeometry x="-45" y="880" width="100" height="30" as="geometry" />
        </mxCell>
        <mxCell id="N08PNImcqQSm8ov4IWrH-177" value="&lt;b&gt;&lt;font color=&quot;#cc0000&quot; style=&quot;font-size: 12px;&quot;&gt;FK&lt;/font&gt;&lt;/b&gt;" style="text;html=1;align=center;verticalAlign=middle;resizable=0;points=[];autosize=1;strokeColor=none;fillColor=none;fontSize=14;fontColor=#000000;" vertex="1" parent="1">
          <mxGeometry x="275" y="800" width="40" height="30" as="geometry" />
        </mxCell>
        <mxCell id="N08PNImcqQSm8ov4IWrH-178" value="&lt;b&gt;&lt;font color=&quot;#3333ff&quot; style=&quot;font-size: 12px;&quot;&gt;PK&lt;/font&gt;&lt;/b&gt;" style="text;html=1;align=center;verticalAlign=middle;resizable=0;points=[];autosize=1;strokeColor=none;fillColor=none;fontSize=14;fontColor=#000000;" vertex="1" parent="1">
          <mxGeometry x="275" y="740" width="40" height="30" as="geometry" />
        </mxCell>
        <mxCell id="N08PNImcqQSm8ov4IWrH-179" value="&lt;font color=&quot;#003300&quot;&gt;1&lt;/font&gt;" style="text;html=1;strokeColor=none;fillColor=none;align=center;verticalAlign=middle;whiteSpace=wrap;rounded=0;labelBackgroundColor=#E6E6E6;fontSize=12;fontColor=#3333FF;" vertex="1" parent="1">
          <mxGeometry x="465" y="660" width="30" height="30" as="geometry" />
        </mxCell>
        <mxCell id="N08PNImcqQSm8ov4IWrH-180" value="&lt;font color=&quot;#003300&quot;&gt;1&lt;/font&gt;" style="text;html=1;strokeColor=none;fillColor=none;align=center;verticalAlign=middle;whiteSpace=wrap;rounded=0;labelBackgroundColor=#E6E6E6;fontSize=12;fontColor=#3333FF;" vertex="1" parent="1">
          <mxGeometry x="285" y="690" width="30" height="30" as="geometry" />
        </mxCell>
        <mxCell id="N08PNImcqQSm8ov4IWrH-181" value="&lt;font color=&quot;#003300&quot;&gt;1:1&lt;/font&gt;" style="text;html=1;strokeColor=none;fillColor=none;align=center;verticalAlign=middle;whiteSpace=wrap;rounded=0;labelBackgroundColor=#E6E6E6;fontSize=12;fontColor=#3333FF;" vertex="1" parent="1">
          <mxGeometry x="415" y="770" width="30" height="30" as="geometry" />
        </mxCell>
        <mxCell id="N08PNImcqQSm8ov4IWrH-182" value="" style="endArrow=classic;html=1;rounded=0;entryX=-0.078;entryY=0.488;entryDx=0;entryDy=0;entryPerimeter=0;" edge="1" parent="1" target="N08PNImcqQSm8ov4IWrH-161">
          <mxGeometry width="50" height="50" relative="1" as="geometry">
            <mxPoint x="290" y="680" as="sourcePoint" />
            <mxPoint x="340" y="730" as="targetPoint" />
          </mxGeometry>
        </mxCell>
        <mxCell id="N08PNImcqQSm8ov4IWrH-185" value="" style="endArrow=classic;html=1;rounded=0;entryX=0;entryY=0.5;entryDx=0;entryDy=0;exitX=0.633;exitY=-0.012;exitDx=0;exitDy=0;exitPerimeter=0;" edge="1" parent="1" source="N08PNImcqQSm8ov4IWrH-157" target="C1baLwybS-N-n2R99N6j-2">
          <mxGeometry width="50" height="50" relative="1" as="geometry">
            <mxPoint x="30" y="740" as="sourcePoint" />
            <mxPoint x="80" y="690" as="targetPoint" />
          </mxGeometry>
        </mxCell>
        <mxCell id="N08PNImcqQSm8ov4IWrH-186" value="" style="endArrow=classic;html=1;rounded=0;" edge="1" parent="1">
          <mxGeometry width="50" height="50" relative="1" as="geometry">
            <mxPoint x="420" y="1010" as="sourcePoint" />
            <mxPoint x="270" y="990" as="targetPoint" />
          </mxGeometry>
        </mxCell>
        <mxCell id="N08PNImcqQSm8ov4IWrH-187" value="" style="endArrow=classic;html=1;rounded=0;" edge="1" parent="1">
          <mxGeometry width="50" height="50" relative="1" as="geometry">
            <mxPoint x="180" y="980" as="sourcePoint" />
            <mxPoint x="75" y="870" as="targetPoint" />
          </mxGeometry>
        </mxCell>
        <mxCell id="N08PNImcqQSm8ov4IWrH-188" value="" style="endArrow=classic;html=1;rounded=0;" edge="1" parent="1">
          <mxGeometry width="50" height="50" relative="1" as="geometry">
            <mxPoint x="20" y="820" as="sourcePoint" />
            <mxPoint x="24.5" y="780" as="targetPoint" />
          </mxGeometry>
        </mxCell>
        <mxCell id="N08PNImcqQSm8ov4IWrH-189" value="&lt;font color=&quot;#003300&quot;&gt;1:N&lt;/font&gt;" style="text;html=1;strokeColor=none;fillColor=none;align=center;verticalAlign=middle;whiteSpace=wrap;rounded=0;labelBackgroundColor=#E6E6E6;fontSize=12;fontColor=#3333FF;" vertex="1" parent="1">
          <mxGeometry x="-50" y="725" width="30" height="30" as="geometry" />
        </mxCell>
        <mxCell id="N08PNImcqQSm8ov4IWrH-190" value="&lt;font color=&quot;#003300&quot;&gt;1&lt;/font&gt;" style="text;html=1;strokeColor=none;fillColor=none;align=center;verticalAlign=middle;whiteSpace=wrap;rounded=0;labelBackgroundColor=#E6E6E6;fontSize=12;fontColor=#3333FF;" vertex="1" parent="1">
          <mxGeometry x="-30" y="790" width="30" height="30" as="geometry" />
        </mxCell>
        <mxCell id="N08PNImcqQSm8ov4IWrH-192" value="&lt;font color=&quot;#003300&quot;&gt;*&lt;/font&gt;" style="text;html=1;strokeColor=none;fillColor=none;align=center;verticalAlign=middle;whiteSpace=wrap;rounded=0;labelBackgroundColor=#E6E6E6;fontSize=12;fontColor=#3333FF;" vertex="1" parent="1">
          <mxGeometry x="140" y="675" width="30" height="30" as="geometry" />
        </mxCell>
        <mxCell id="N08PNImcqQSm8ov4IWrH-193" value="&lt;font color=&quot;#003300&quot;&gt;1:N&lt;/font&gt;" style="text;html=1;strokeColor=none;fillColor=none;align=center;verticalAlign=middle;whiteSpace=wrap;rounded=0;labelBackgroundColor=#E6E6E6;fontSize=12;fontColor=#3333FF;" vertex="1" parent="1">
          <mxGeometry x="215" y="1030" width="30" height="30" as="geometry" />
        </mxCell>
        <mxCell id="N08PNImcqQSm8ov4IWrH-194" value="&lt;font color=&quot;#003300&quot;&gt;1&lt;/font&gt;" style="text;html=1;strokeColor=none;fillColor=none;align=center;verticalAlign=middle;whiteSpace=wrap;rounded=0;labelBackgroundColor=#E6E6E6;fontSize=12;fontColor=#3333FF;" vertex="1" parent="1">
          <mxGeometry x="390" y="1020" width="30" height="30" as="geometry" />
        </mxCell>
        <mxCell id="N08PNImcqQSm8ov4IWrH-195" value="&lt;font color=&quot;#003300&quot;&gt;*&lt;/font&gt;" style="text;html=1;strokeColor=none;fillColor=none;align=center;verticalAlign=middle;whiteSpace=wrap;rounded=0;labelBackgroundColor=#E6E6E6;fontSize=12;fontColor=#3333FF;" vertex="1" parent="1">
          <mxGeometry x="70" y="850" width="30" height="30" as="geometry" />
        </mxCell>
        <mxCell id="N08PNImcqQSm8ov4IWrH-196" value="&lt;b&gt;&lt;font color=&quot;#cc0000&quot; style=&quot;font-size: 12px;&quot;&gt;FK&lt;/font&gt;&lt;/b&gt;" style="text;html=1;align=center;verticalAlign=middle;resizable=0;points=[];autosize=1;strokeColor=none;fillColor=none;fontSize=14;fontColor=#000000;" vertex="1" parent="1">
          <mxGeometry x="-85" y="940" width="40" height="30" as="geometry" />
        </mxCell>
        <mxCell id="N08PNImcqQSm8ov4IWrH-197" value="&lt;b&gt;&lt;font color=&quot;#3333ff&quot; style=&quot;font-size: 12px;&quot;&gt;PK&lt;/font&gt;&lt;/b&gt;" style="text;html=1;align=center;verticalAlign=middle;resizable=0;points=[];autosize=1;strokeColor=none;fillColor=none;fontSize=14;fontColor=#000000;" vertex="1" parent="1">
          <mxGeometry x="-85" y="880" width="40" height="30" as="geometry" />
        </mxCell>
        <mxCell id="N08PNImcqQSm8ov4IWrH-199" value="&lt;b&gt;&lt;font color=&quot;#3333ff&quot; style=&quot;font-size: 12px;&quot;&gt;PK&lt;/font&gt;&lt;/b&gt;" style="text;html=1;align=center;verticalAlign=middle;resizable=0;points=[];autosize=1;strokeColor=none;fillColor=none;fontSize=14;fontColor=#000000;" vertex="1" parent="1">
          <mxGeometry x="534" y="900" width="40" height="30" as="geometry" />
        </mxCell>
        <mxCell id="ltRi4kwyxKKsPiK5shcT-1" value="&lt;b&gt;&lt;font style=&quot;font-size: 14px; background-color: rgb(230, 230, 230);&quot;&gt;Id Vta ord / prod&lt;/font&gt;&lt;/b&gt;" style="ellipse;whiteSpace=wrap;html=1;labelBackgroundColor=#FFFFFF;fontSize=15;fontColor=#000000;fillColor=#FFFFFF;gradientColor=default;" vertex="1" parent="1">
          <mxGeometry x="950" y="90" width="115" height="50" as="geometry" />
        </mxCell>
        <mxCell id="ltRi4kwyxKKsPiK5shcT-2" value="&lt;b&gt;&lt;font color=&quot;#3333ff&quot; style=&quot;font-size: 12px;&quot;&gt;PK&lt;/font&gt;&lt;/b&gt;" style="text;html=1;align=center;verticalAlign=middle;resizable=0;points=[];autosize=1;strokeColor=none;fillColor=none;fontSize=14;fontColor=#000000;" vertex="1" parent="1">
          <mxGeometry x="1060" y="110" width="40" height="30" as="geometry" />
        </mxCell>
        <mxCell id="MFRpFTgNGSZFwReCVLDX-1" value="&lt;b&gt;Tiene&lt;/b&gt;" style="rhombus;whiteSpace=wrap;html=1;labelBackgroundColor=#E6E6E6;fontSize=14;fontColor=#000000;fillColor=#CC0000;gradientColor=default;" vertex="1" parent="1">
          <mxGeometry x="1605" y="300" width="90" height="80" as="geometry" />
        </mxCell>
        <mxCell id="MFRpFTgNGSZFwReCVLDX-2" value="&lt;span style=&quot;font-size: 14px; background-color: rgb(230, 230, 230);&quot;&gt;&lt;b&gt;Id categoria&lt;/b&gt;&lt;/span&gt;" style="ellipse;whiteSpace=wrap;html=1;labelBackgroundColor=#FFFFFF;fontSize=15;fontColor=#000000;fillColor=#FFFFFF;gradientColor=default;" vertex="1" parent="1">
          <mxGeometry x="1600" y="540" width="100" height="30" as="geometry" />
        </mxCell>
        <mxCell id="MFRpFTgNGSZFwReCVLDX-3" value="&lt;b&gt;&lt;font color=&quot;#cc0000&quot; style=&quot;font-size: 12px;&quot;&gt;FK&lt;/font&gt;&lt;/b&gt;" style="text;html=1;align=center;verticalAlign=middle;resizable=0;points=[];autosize=1;strokeColor=none;fillColor=none;fontSize=14;fontColor=#000000;" vertex="1" parent="1">
          <mxGeometry x="1700" y="540" width="40" height="30" as="geometry" />
        </mxCell>
        <mxCell id="MFRpFTgNGSZFwReCVLDX-4" value="&lt;font color=&quot;#003300&quot;&gt;1:N&lt;/font&gt;" style="text;html=1;strokeColor=none;fillColor=none;align=center;verticalAlign=middle;whiteSpace=wrap;rounded=0;labelBackgroundColor=#E6E6E6;fontSize=12;fontColor=#3333FF;" vertex="1" parent="1">
          <mxGeometry x="1690" y="325" width="30" height="30" as="geometry" />
        </mxCell>
        <mxCell id="MFRpFTgNGSZFwReCVLDX-5" value="" style="endArrow=classic;html=1;rounded=0;exitX=0.45;exitY=1.033;exitDx=0;exitDy=0;exitPerimeter=0;" edge="1" parent="1" source="N08PNImcqQSm8ov4IWrH-86">
          <mxGeometry width="50" height="50" relative="1" as="geometry">
            <mxPoint x="1649.5" y="270" as="sourcePoint" />
            <mxPoint x="1649.5" y="300" as="targetPoint" />
          </mxGeometry>
        </mxCell>
        <mxCell id="MFRpFTgNGSZFwReCVLDX-6" value="" style="endArrow=classic;html=1;rounded=0;" edge="1" parent="1">
          <mxGeometry width="50" height="50" relative="1" as="geometry">
            <mxPoint x="1650" y="374" as="sourcePoint" />
            <mxPoint x="1650" y="414" as="targetPoint" />
          </mxGeometry>
        </mxCell>
        <mxCell id="MFRpFTgNGSZFwReCVLDX-8" value="&lt;font color=&quot;#003300&quot;&gt;1&lt;/font&gt;" style="text;html=1;strokeColor=none;fillColor=none;align=center;verticalAlign=middle;whiteSpace=wrap;rounded=0;labelBackgroundColor=#E6E6E6;fontSize=12;fontColor=#3333FF;" vertex="1" parent="1">
          <mxGeometry x="1685" y="255" width="30" height="30" as="geometry" />
        </mxCell>
        <mxCell id="MFRpFTgNGSZFwReCVLDX-9" value="&lt;font color=&quot;#003300&quot;&gt;*&lt;/font&gt;" style="text;html=1;strokeColor=none;fillColor=none;align=center;verticalAlign=middle;whiteSpace=wrap;rounded=0;labelBackgroundColor=#E6E6E6;fontSize=12;fontColor=#3333FF;" vertex="1" parent="1">
          <mxGeometry x="1685" y="385" width="30" height="30" as="geometry" />
        </mxCell>
        <mxCell id="aRaKKf0_rWp3il6d1QdX-1" value="&lt;b&gt;&lt;font color=&quot;#cc0000&quot; style=&quot;font-size: 12px;&quot;&gt;FK&lt;/font&gt;&lt;/b&gt;" style="text;html=1;align=center;verticalAlign=middle;resizable=0;points=[];autosize=1;strokeColor=none;fillColor=none;fontSize=14;fontColor=#000000;" vertex="1" parent="1">
          <mxGeometry x="494" y="785" width="40" height="30" as="geometry" />
        </mxCell>
        <mxCell id="aRaKKf0_rWp3il6d1QdX-8" value="&lt;b&gt;&lt;font style=&quot;font-size: 14px; background-color: rgb(230, 230, 230);&quot;&gt;Profit&lt;/font&gt;&lt;/b&gt;" style="ellipse;whiteSpace=wrap;html=1;labelBackgroundColor=#FFFFFF;fontSize=15;fontColor=#000000;fillColor=#FFFFFF;gradientColor=default;" vertex="1" parent="1">
          <mxGeometry x="960" y="30" width="100" height="30" as="geometry" />
        </mxCell>
        <mxCell id="SUya6lJ_rxS2PIiOY_eh-2" value="&lt;b&gt;&lt;font style=&quot;font-size: 14px; background-color: rgb(230, 230, 230);&quot;&gt;Ventas&lt;/font&gt;&lt;/b&gt;" style="ellipse;whiteSpace=wrap;html=1;labelBackgroundColor=#FFFFFF;fontSize=15;fontColor=#000000;fillColor=#FFFFFF;gradientColor=default;" vertex="1" parent="1">
          <mxGeometry x="957.5" y="60" width="100" height="30" as="geometry" />
        </mxCell>
        <mxCell id="SUya6lJ_rxS2PIiOY_eh-3" value="&lt;b&gt;&lt;font style=&quot;font-size: 14px; background-color: rgb(230, 230, 230);&quot;&gt;Discount&lt;/font&gt;&lt;/b&gt;" style="ellipse;whiteSpace=wrap;html=1;labelBackgroundColor=#FFFFFF;fontSize=15;fontColor=#000000;fillColor=#FFFFFF;gradientColor=default;" vertex="1" parent="1">
          <mxGeometry x="960" width="100" height="30" as="geometry" />
        </mxCell>
      </root>
    </mxGraphModel>
  </diagram>
</mxfile>
